<?xml version="1.0" encoding="UTF-8" standalone="no"?>
<!-- Created with Inkscape (http://www.inkscape.org/) -->

<svg
   xmlns:dc="http://purl.org/dc/elements/1.1/"
   xmlns:cc="http://creativecommons.org/ns#"
   xmlns:rdf="http://www.w3.org/1999/02/22-rdf-syntax-ns#"
   xmlns:svg="http://www.w3.org/2000/svg"
   xmlns="http://www.w3.org/2000/svg"
   xmlns:sodipodi="http://sodipodi.sourceforge.net/DTD/sodipodi-0.dtd"
   xmlns:inkscape="http://www.inkscape.org/namespaces/inkscape"
   width="187.68457mm"
   height="77.217636mm"
   viewBox="0 0 187.68457 77.217636"
   version="1.1"
   id="svg1086"
   inkscape:version="0.92.5 (2060ec1f9f, 2020-04-08)"
   sodipodi:docname="logo_vertical.svg"
   inkscape:export-filename="/home/kzkedzierska/Documents/NGSchool/logo/logo_vertical.png"
   inkscape:export-xdpi="600"
   inkscape:export-ydpi="600">
  <defs
     id="defs1080">
    <clipPath
       clipPathUnits="userSpaceOnUse"
       id="clipPath2917">
      <rect
         style="opacity:1;fill:#ffaaaa;fill-opacity:0.06024098;stroke:none;stroke-width:15.76261139;stroke-linecap:round;stroke-linejoin:round;stroke-miterlimit:4;stroke-dasharray:none;stroke-dashoffset:0;stroke-opacity:1"
         id="rect2919"
         width="382.95764"
         height="342.35864"
         x="-237.92343"
         y="-878.91248"
         ry="15.245255" />
    </clipPath>
    <clipPath
       clipPathUnits="userSpaceOnUse"
       id="clipPath119">
      <rect
         style="opacity:0.59299999;fill:#ffd15c;fill-opacity:1;stroke-width:0.26458332"
         id="rect121"
         width="119.20221"
         height="47.039436"
         x="-611.6991"
         y="-235.9205" />
    </clipPath>
    <clipPath
       clipPathUnits="userSpaceOnUse"
       id="clipPath164">
      <rect
         style="opacity:0.59299999;fill:#ffd15c;fill-opacity:1;stroke-width:0.26458332"
         id="rect166"
         width="78.309975"
         height="41.426773"
         x="-584.97955"
         y="-165.38835" />
    </clipPath>
    <clipPath
       clipPathUnits="userSpaceOnUse"
       id="clipPath206">
      <rect
         style="opacity:0.59299999;fill:#ffd15c;fill-opacity:1;stroke-width:0.26836574"
         id="rect208"
         width="31.270533"
         height="140.04922"
         x="-650.05524"
         y="-245.90607" />
    </clipPath>
    <clipPath
       clipPathUnits="userSpaceOnUse"
       id="clipPath231">
      <path
         style="fill:none;stroke:#000000;stroke-width:0.19569226px;stroke-linecap:butt;stroke-linejoin:miter;stroke-opacity:1"
         d="m -618.36406,-126.54186 c 0,0 -6.12805,8.5002 -6.52341,9.4886 -0.39535,0.9884 -1.99915,9.28521 -1.99915,9.28521 0,0 -5.11729,5.54072 -6.10569,4.75001 -0.98839,-0.79072 -11.86074,-28.66347 -12.05842,-30.83794 -0.19767,-2.17447 4.7574,-36.17184 4.94197,-40.12885 0.18458,-3.95701 -0.40674,-19.15719 -0.40674,-19.15719 0,0 -4.7329,-21.16933 -3.94219,-23.3438 0.79071,-2.17447 4.44895,-26.44036 4.44895,-26.44036 l 6.02804,-10.13027 9.68627,1.97679 -2.76751,14.43058 c 0,0 10.08164,2.7675 10.477,4.15126 0.39535,1.38375 -3.7559,49.22208 -3.7559,49.22208 l -1.9768,4.94198 z"
         id="path233"
         inkscape:connector-curvature="0" />
    </clipPath>
    <clipPath
       clipPathUnits="userSpaceOnUse"
       id="clipPath313">
      <rect
         style="opacity:0.59299999;fill:#ffd15c;fill-opacity:1;stroke-width:0.26458332"
         id="rect315"
         width="16.036171"
         height="12.294398"
         x="-599.1521"
         y="-184.61368" />
    </clipPath>
    <clipPath
       clipPathUnits="userSpaceOnUse"
       id="clipPath313-7">
      <rect
         style="opacity:0.59299999;fill:#ffd15c;fill-opacity:1;stroke-width:0.26458332"
         id="rect315-6"
         width="16.036171"
         height="12.294398"
         x="-599.1521"
         y="-184.61368" />
    </clipPath>
    <clipPath
       clipPathUnits="userSpaceOnUse"
       id="clipPath313-75">
      <rect
         style="opacity:0.59299999;fill:#ffd15c;fill-opacity:1;stroke-width:0.26458332"
         id="rect315-9"
         width="16.036171"
         height="12.294398"
         x="-599.1521"
         y="-184.61368" />
    </clipPath>
    <clipPath
       clipPathUnits="userSpaceOnUse"
       id="clipPath961">
      <ellipse
         style="opacity:0.29800002;fill:#00ccff;fill-opacity:1;stroke:#008dc7;stroke-width:3.32800007;stroke-miterlimit:4;stroke-dasharray:none;stroke-opacity:1"
         id="ellipse963"
         cx="-593.35028"
         cy="-178.31116"
         rx="2.505652"
         ry="2.7729213" />
    </clipPath>
    <clipPath
       clipPathUnits="userSpaceOnUse"
       id="clipPath961-3">
      <ellipse
         style="opacity:0.29800002;fill:#00ccff;fill-opacity:1;stroke:#008dc7;stroke-width:3.32800007;stroke-miterlimit:4;stroke-dasharray:none;stroke-opacity:1"
         id="ellipse963-0"
         cx="-593.35028"
         cy="-178.31116"
         rx="2.505652"
         ry="2.7729213" />
    </clipPath>
    <clipPath
       clipPathUnits="userSpaceOnUse"
       id="clipPath961-38">
      <ellipse
         style="opacity:0.29800002;fill:#00ccff;fill-opacity:1;stroke:#008dc7;stroke-width:3.32800007;stroke-miterlimit:4;stroke-dasharray:none;stroke-opacity:1"
         id="ellipse963-7"
         cx="-593.35028"
         cy="-178.31116"
         rx="2.505652"
         ry="2.7729213" />
    </clipPath>
    <clipPath
       clipPathUnits="userSpaceOnUse"
       id="clipPath961-384">
      <ellipse
         style="opacity:0.29800002;fill:#00ccff;fill-opacity:1;stroke:#008dc7;stroke-width:3.32800007;stroke-miterlimit:4;stroke-dasharray:none;stroke-opacity:1"
         id="ellipse963-4"
         cx="-593.35028"
         cy="-178.31116"
         rx="2.505652"
         ry="2.7729213" />
    </clipPath>
    <clipPath
       clipPathUnits="userSpaceOnUse"
       id="clipPath119-2">
      <rect
         style="opacity:0.59299999;fill:#ffd15c;fill-opacity:1;stroke-width:0.26458332"
         id="rect121-0"
         width="119.20221"
         height="47.039436"
         x="-611.6991"
         y="-235.9205" />
    </clipPath>
    <clipPath
       clipPathUnits="userSpaceOnUse"
       id="clipPath164-7">
      <rect
         style="opacity:0.59299999;fill:#ffd15c;fill-opacity:1;stroke-width:0.26458332"
         id="rect166-4"
         width="78.309975"
         height="41.426773"
         x="-584.97955"
         y="-165.38835" />
    </clipPath>
    <clipPath
       clipPathUnits="userSpaceOnUse"
       id="clipPath1818">
      <rect
         style="opacity:0.51499999;fill:#ffd15c;fill-opacity:1;stroke:none;stroke-width:3.32800007;stroke-miterlimit:4;stroke-dasharray:none;stroke-opacity:1"
         id="rect1820"
         width="109.01197"
         height="40.602875"
         x="-372.29349"
         y="-345.23895" />
    </clipPath>
    <clipPath
       clipPathUnits="userSpaceOnUse"
       id="clipPath1822">
      <rect
         style="opacity:0.51499999;fill:#ffd15c;fill-opacity:1;stroke:none;stroke-width:3.32800007;stroke-miterlimit:4;stroke-dasharray:none;stroke-opacity:1"
         id="rect1824"
         width="109.01197"
         height="40.602875"
         x="-372.29349"
         y="-345.23895" />
    </clipPath>
    <clipPath
       clipPathUnits="userSpaceOnUse"
       id="clipPath1826">
      <rect
         style="opacity:0.51499999;fill:#ffd15c;fill-opacity:1;stroke:none;stroke-width:3.32800007;stroke-miterlimit:4;stroke-dasharray:none;stroke-opacity:1"
         id="rect1828"
         width="109.01197"
         height="40.602875"
         x="-372.29349"
         y="-345.23895" />
    </clipPath>
    <clipPath
       clipPathUnits="userSpaceOnUse"
       id="clipPath1830">
      <rect
         style="opacity:0.51499999;fill:#ffd15c;fill-opacity:1;stroke:none;stroke-width:3.32800007;stroke-miterlimit:4;stroke-dasharray:none;stroke-opacity:1"
         id="rect1832"
         width="109.01197"
         height="40.602875"
         x="-372.29349"
         y="-345.23895" />
    </clipPath>
    <clipPath
       clipPathUnits="userSpaceOnUse"
       id="clipPath1834">
      <rect
         style="opacity:0.51499999;fill:#ffd15c;fill-opacity:1;stroke:none;stroke-width:3.32800007;stroke-miterlimit:4;stroke-dasharray:none;stroke-opacity:1"
         id="rect1836"
         width="109.01197"
         height="40.602875"
         x="-372.29349"
         y="-345.23895" />
    </clipPath>
    <clipPath
       clipPathUnits="userSpaceOnUse"
       id="clipPath1838">
      <rect
         style="opacity:0.51499999;fill:#ffd15c;fill-opacity:1;stroke:none;stroke-width:3.32800007;stroke-miterlimit:4;stroke-dasharray:none;stroke-opacity:1"
         id="rect1840"
         width="109.01197"
         height="40.602875"
         x="-372.29349"
         y="-345.23895" />
    </clipPath>
    <clipPath
       clipPathUnits="userSpaceOnUse"
       id="clipPath1842">
      <rect
         style="opacity:0.51499999;fill:#ffd15c;fill-opacity:1;stroke:none;stroke-width:3.32800007;stroke-miterlimit:4;stroke-dasharray:none;stroke-opacity:1"
         id="rect1844"
         width="109.01197"
         height="40.602875"
         x="-372.29349"
         y="-345.23895" />
    </clipPath>
    <clipPath
       clipPathUnits="userSpaceOnUse"
       id="clipPath1842-1">
      <rect
         style="opacity:0.51499999;fill:#ffd15c;fill-opacity:1;stroke:none;stroke-width:3.32800007;stroke-miterlimit:4;stroke-dasharray:none;stroke-opacity:1"
         id="rect1844-3"
         width="109.01197"
         height="40.602875"
         x="-372.29349"
         y="-345.23895" />
    </clipPath>
    <clipPath
       clipPathUnits="userSpaceOnUse"
       id="clipPath1838-2">
      <rect
         style="opacity:0.51499999;fill:#ffd15c;fill-opacity:1;stroke:none;stroke-width:3.32800007;stroke-miterlimit:4;stroke-dasharray:none;stroke-opacity:1"
         id="rect1840-5"
         width="109.01197"
         height="40.602875"
         x="-372.29349"
         y="-345.23895" />
    </clipPath>
    <clipPath
       clipPathUnits="userSpaceOnUse"
       id="clipPath1834-8">
      <rect
         style="opacity:0.51499999;fill:#ffd15c;fill-opacity:1;stroke:none;stroke-width:3.32800007;stroke-miterlimit:4;stroke-dasharray:none;stroke-opacity:1"
         id="rect1836-8"
         width="109.01197"
         height="40.602875"
         x="-372.29349"
         y="-345.23895" />
    </clipPath>
    <clipPath
       clipPathUnits="userSpaceOnUse"
       id="clipPath1830-6">
      <rect
         style="opacity:0.51499999;fill:#ffd15c;fill-opacity:1;stroke:none;stroke-width:3.32800007;stroke-miterlimit:4;stroke-dasharray:none;stroke-opacity:1"
         id="rect1832-5"
         width="109.01197"
         height="40.602875"
         x="-372.29349"
         y="-345.23895" />
    </clipPath>
    <clipPath
       clipPathUnits="userSpaceOnUse"
       id="clipPath1826-7">
      <rect
         style="opacity:0.51499999;fill:#ffd15c;fill-opacity:1;stroke:none;stroke-width:3.32800007;stroke-miterlimit:4;stroke-dasharray:none;stroke-opacity:1"
         id="rect1828-4"
         width="109.01197"
         height="40.602875"
         x="-372.29349"
         y="-345.23895" />
    </clipPath>
    <clipPath
       clipPathUnits="userSpaceOnUse"
       id="clipPath1822-1">
      <rect
         style="opacity:0.51499999;fill:#ffd15c;fill-opacity:1;stroke:none;stroke-width:3.32800007;stroke-miterlimit:4;stroke-dasharray:none;stroke-opacity:1"
         id="rect1824-4"
         width="109.01197"
         height="40.602875"
         x="-372.29349"
         y="-345.23895" />
    </clipPath>
    <clipPath
       clipPathUnits="userSpaceOnUse"
       id="clipPath1818-7">
      <rect
         style="opacity:0.51499999;fill:#ffd15c;fill-opacity:1;stroke:none;stroke-width:3.32800007;stroke-miterlimit:4;stroke-dasharray:none;stroke-opacity:1"
         id="rect1820-4"
         width="109.01197"
         height="40.602875"
         x="-372.29349"
         y="-345.23895" />
    </clipPath>
    <clipPath
       clipPathUnits="userSpaceOnUse"
       id="clipPath4678">
      <rect
         style="opacity:0.51499999;fill:#ffd15c;fill-opacity:1;stroke:none;stroke-width:3.17012239;stroke-miterlimit:4;stroke-dasharray:none;stroke-opacity:1"
         id="rect4680"
         width="75.719093"
         height="38.203632"
         x="-585.01038"
         y="-164.56447" />
    </clipPath>
    <clipPath
       clipPathUnits="userSpaceOnUse"
       id="clipPath4678-3">
      <rect
         style="opacity:0.51499999;fill:#ffd15c;fill-opacity:1;stroke:none;stroke-width:3.17012239;stroke-miterlimit:4;stroke-dasharray:none;stroke-opacity:1"
         id="rect4680-8"
         width="75.719093"
         height="38.203632"
         x="-585.01038"
         y="-164.56447" />
    </clipPath>
    <clipPath
       clipPathUnits="userSpaceOnUse"
       id="clipPath1842-5">
      <rect
         style="opacity:0.51499999;fill:#ffd15c;fill-opacity:1;stroke:none;stroke-width:3.32800007;stroke-miterlimit:4;stroke-dasharray:none;stroke-opacity:1"
         id="rect1844-6"
         width="109.01197"
         height="40.602875"
         x="-372.29349"
         y="-345.23895" />
    </clipPath>
    <clipPath
       clipPathUnits="userSpaceOnUse"
       id="clipPath1838-1">
      <rect
         style="opacity:0.51499999;fill:#ffd15c;fill-opacity:1;stroke:none;stroke-width:3.32800007;stroke-miterlimit:4;stroke-dasharray:none;stroke-opacity:1"
         id="rect1840-1"
         width="109.01197"
         height="40.602875"
         x="-372.29349"
         y="-345.23895" />
    </clipPath>
    <clipPath
       clipPathUnits="userSpaceOnUse"
       id="clipPath1834-5">
      <rect
         style="opacity:0.51499999;fill:#ffd15c;fill-opacity:1;stroke:none;stroke-width:3.32800007;stroke-miterlimit:4;stroke-dasharray:none;stroke-opacity:1"
         id="rect1836-9"
         width="109.01197"
         height="40.602875"
         x="-372.29349"
         y="-345.23895" />
    </clipPath>
    <clipPath
       clipPathUnits="userSpaceOnUse"
       id="clipPath1830-8">
      <rect
         style="opacity:0.51499999;fill:#ffd15c;fill-opacity:1;stroke:none;stroke-width:3.32800007;stroke-miterlimit:4;stroke-dasharray:none;stroke-opacity:1"
         id="rect1832-4"
         width="109.01197"
         height="40.602875"
         x="-372.29349"
         y="-345.23895" />
    </clipPath>
    <clipPath
       clipPathUnits="userSpaceOnUse"
       id="clipPath1826-8">
      <rect
         style="opacity:0.51499999;fill:#ffd15c;fill-opacity:1;stroke:none;stroke-width:3.32800007;stroke-miterlimit:4;stroke-dasharray:none;stroke-opacity:1"
         id="rect1828-1"
         width="109.01197"
         height="40.602875"
         x="-372.29349"
         y="-345.23895" />
    </clipPath>
    <clipPath
       clipPathUnits="userSpaceOnUse"
       id="clipPath1822-0">
      <rect
         style="opacity:0.51499999;fill:#ffd15c;fill-opacity:1;stroke:none;stroke-width:3.32800007;stroke-miterlimit:4;stroke-dasharray:none;stroke-opacity:1"
         id="rect1824-3"
         width="109.01197"
         height="40.602875"
         x="-372.29349"
         y="-345.23895" />
    </clipPath>
    <clipPath
       clipPathUnits="userSpaceOnUse"
       id="clipPath1818-0">
      <rect
         style="opacity:0.51499999;fill:#ffd15c;fill-opacity:1;stroke:none;stroke-width:3.32800007;stroke-miterlimit:4;stroke-dasharray:none;stroke-opacity:1"
         id="rect1820-44"
         width="109.01197"
         height="40.602875"
         x="-372.29349"
         y="-345.23895" />
    </clipPath>
    <clipPath
       clipPathUnits="userSpaceOnUse"
       id="clipPath961-384-4">
      <ellipse
         style="opacity:0.29800002;fill:#00ccff;fill-opacity:1;stroke:#008dc7;stroke-width:3.32800007;stroke-miterlimit:4;stroke-dasharray:none;stroke-opacity:1"
         id="ellipse963-4-4"
         cx="-593.35028"
         cy="-178.31116"
         rx="2.505652"
         ry="2.7729213" />
    </clipPath>
    <clipPath
       clipPathUnits="userSpaceOnUse"
       id="clipPath961-38-7">
      <ellipse
         style="opacity:0.29800002;fill:#00ccff;fill-opacity:1;stroke:#008dc7;stroke-width:3.32800007;stroke-miterlimit:4;stroke-dasharray:none;stroke-opacity:1"
         id="ellipse963-7-6"
         cx="-593.35028"
         cy="-178.31116"
         rx="2.505652"
         ry="2.7729213" />
    </clipPath>
    <clipPath
       clipPathUnits="userSpaceOnUse"
       id="clipPath961-3-3">
      <ellipse
         style="opacity:0.29800002;fill:#00ccff;fill-opacity:1;stroke:#008dc7;stroke-width:3.32800007;stroke-miterlimit:4;stroke-dasharray:none;stroke-opacity:1"
         id="ellipse963-0-1"
         cx="-593.35028"
         cy="-178.31116"
         rx="2.505652"
         ry="2.7729213" />
    </clipPath>
    <clipPath
       clipPathUnits="userSpaceOnUse"
       id="clipPath961-7">
      <ellipse
         style="opacity:0.29800002;fill:#00ccff;fill-opacity:1;stroke:#008dc7;stroke-width:3.32800007;stroke-miterlimit:4;stroke-dasharray:none;stroke-opacity:1"
         id="ellipse963-5"
         cx="-593.35028"
         cy="-178.31116"
         rx="2.505652"
         ry="2.7729213" />
    </clipPath>
    <clipPath
       clipPathUnits="userSpaceOnUse"
       id="clipPath231-9">
      <path
         style="fill:none;stroke:#000000;stroke-width:0.19569226px;stroke-linecap:butt;stroke-linejoin:miter;stroke-opacity:1"
         d="m -618.36406,-126.54186 c 0,0 -6.12805,8.5002 -6.52341,9.4886 -0.39535,0.9884 -1.99915,9.28521 -1.99915,9.28521 0,0 -5.11729,5.54072 -6.10569,4.75001 -0.98839,-0.79072 -11.86074,-28.66347 -12.05842,-30.83794 -0.19767,-2.17447 4.7574,-36.17184 4.94197,-40.12885 0.18458,-3.95701 -0.40674,-19.15719 -0.40674,-19.15719 0,0 -4.7329,-21.16933 -3.94219,-23.3438 0.79071,-2.17447 4.44895,-26.44036 4.44895,-26.44036 l 6.02804,-10.13027 9.68627,1.97679 -2.76751,14.43058 c 0,0 10.08164,2.7675 10.477,4.15126 0.39535,1.38375 -3.7559,49.22208 -3.7559,49.22208 l -1.9768,4.94198 z"
         id="path233-6"
         inkscape:connector-curvature="0" />
    </clipPath>
  </defs>
  <sodipodi:namedview
     id="base"
     pagecolor="#ffffff"
     bordercolor="#666666"
     borderopacity="1.0"
     inkscape:pageopacity="1"
     inkscape:pageshadow="2"
     inkscape:zoom="1.8453279"
     inkscape:cx="354.6795"
     inkscape:cy="37.017721"
     inkscape:document-units="mm"
     inkscape:current-layer="layer4"
     showgrid="false"
     fit-margin-top="3"
     fit-margin-left="3"
     fit-margin-right="3"
     fit-margin-bottom="3"
     inkscape:window-width="1860"
     inkscape:window-height="1016"
     inkscape:window-x="60"
     inkscape:window-y="27"
     inkscape:window-maximized="1"
     inkscape:pagecheckerboard="true"
     scale-x="1.1" />
  <metadata
     id="metadata1083">
    <rdf:RDF>
      <cc:Work
         rdf:about="">
        <dc:format>image/svg+xml</dc:format>
        <dc:type
           rdf:resource="http://purl.org/dc/dcmitype/StillImage" />
        <dc:title />
      </cc:Work>
    </rdf:RDF>
  </metadata>
  <g
     inkscape:groupmode="layer"
     id="layer4"
     inkscape:label="Layer 2"
     transform="translate(0.2993247,-101.63219)">
    <g
       id="g2640"
       transform="translate(1894.3671,346.37843)">
      <path
         id="path1214"
         d="m -1789.9454,-198.371 c -2.7972,-0.47994 -4.7107,-2.3443 -5.6649,-5.51953 -0.7591,-2.5258 -1.0972,-7.25605 -0.7377,-10.32008 0.7372,-6.28354 3.0979,-9.09515 7.6363,-9.09515 3.2109,0 5.79,1.95813 6.6994,5.08625 0.555,1.90906 0.4453,2.45265 -0.5173,2.564 -0.6382,0.0738 -0.7929,-0.0422 -0.9402,-0.70556 -0.5693,-2.56363 -1.4459,-3.96834 -2.9674,-4.75515 -0.9456,-0.489 -3.4292,-0.54505 -4.3028,-0.0971 -1.366,0.70041 -2.4476,2.06874 -3.0792,3.8955 -0.5666,1.63882 -0.6417,2.4015 -0.6417,6.51286 0,3.81396 0.096,4.93756 0.5293,6.20888 0.6329,1.85571 1.6145,3.23935 2.8195,3.97409 1.0991,0.6702 3.264,0.71111 4.5801,0.0865 1.2871,-0.61078 2.5379,-2.37965 2.9393,-4.15689 0.5451,-2.4133 0.5611,-2.44374 1.2864,-2.44374 0.6252,0 0.6865,0.11306 0.6865,1.26699 0,0.69682 -0.2404,1.89961 -0.5342,2.67285 -1.353,3.56079 -4.3486,5.41596 -7.7914,4.82527 z"
         style="fill:#275c8a;fill-opacity:1;stroke-width:0.28222221"
         inkscape:connector-curvature="0" />
      <path
         id="path1212"
         d="m -1750.6777,-223.327 c -2.3483,0 -3.7624,0.6137 -5.2767,2.28978 -2.1153,2.34147 -3.1404,7.65143 -2.5393,13.15632 0.6392,5.85456 2.5423,8.70276 6.3257,9.46712 2.5342,0.51197 5.0603,-0.29595 6.6807,-2.13682 2.0329,-2.30949 2.8885,-6.5452 2.5368,-12.55687 -0.3996,-6.83059 -2.9621,-10.21953 -7.7272,-10.21953 z m 0.018,1.78284 c 1.8933,0 3.5454,0.80053 4.3455,2.10581 1.178,1.92187 1.5575,4.02213 1.5575,8.6186 0,6.11262 -0.843,8.77904 -3.1936,10.10016 -1.2861,0.72282 -3.6213,0.82708 -5.0069,0.22376 -1.2764,-0.55578 -2.5074,-2.21685 -3.1135,-4.20182 -0.4345,-1.42279 -0.5313,-2.61375 -0.5204,-6.40425 0.012,-4.1649 0.081,-4.82852 0.6568,-6.28386 1.1956,-3.023 2.6359,-4.1584 5.2746,-4.1584 z"
         style="fill:#275c8a;fill-opacity:1;stroke-width:0.28222221"
         inkscape:connector-curvature="0" />
      <path
         id="path1208"
         d="m -1730.2993,-223.327 c -2.3483,0 -3.7629,0.6137 -5.2772,2.28978 -2.1153,2.34147 -3.1399,7.65143 -2.5388,13.15632 0.6392,5.85456 2.5423,8.70276 6.3257,9.46712 2.5342,0.51197 5.0598,-0.29595 6.6802,-2.13682 2.0353,-2.31228 2.8983,-6.59112 2.5264,-12.52689 -0.4333,-6.91681 -2.9421,-10.24951 -7.7163,-10.24951 z m 0.018,1.78284 c 1.8933,0 3.5449,0.80053 4.345,2.10581 1.178,1.92187 1.5575,4.02213 1.5575,8.6186 0,6.11262 -0.843,8.77904 -3.1936,10.10016 -1.2861,0.72282 -3.6213,0.82708 -5.0069,0.22376 -1.2764,-0.55578 -2.5069,-2.21685 -3.113,-4.20182 -0.4345,-1.42279 -0.5313,-2.61375 -0.5204,-6.40425 0.012,-4.1649 0.081,-4.82852 0.6568,-6.28386 1.1956,-3.023 2.6359,-4.1584 5.2746,-4.1584 z"
         style="fill:#275c8a;fill-opacity:1;stroke-width:0.28222221"
         inkscape:connector-curvature="0" />
      <path
         id="path1204"
         d="m -1776.8443,-198.84314 c -0.3114,-1.16271 -0.2072,-30.97872 0.1103,-31.57207 0.3525,-0.65856 1.2743,-0.71921 1.5121,-0.0995 0.094,0.24552 0.1713,2.74694 0.1713,5.5587 v 5.11227 l 0.9173,-0.87044 c 1.4692,-1.39424 2.6665,-1.86329 4.7565,-1.86329 3.0455,0 5.1514,1.54608 5.9018,4.33282 0.1731,0.64298 0.2562,4.7627 0.2111,10.47015 l -0.074,9.41003 h -0.7056 -0.7056 l -0.1411,-9.73668 c -0.1257,-8.6737 -0.1965,-9.83816 -0.6487,-10.66637 -1.3861,-2.53883 -5.405,-2.77473 -7.5913,-0.44561 -1.688,1.79834 -1.7626,2.26323 -1.9183,11.95865 l -0.1428,8.89001 -0.7392,0.0857 c -0.5709,0.0662 -0.7789,-0.0623 -0.9134,-0.56444 z"
         style="fill:#275c8a;fill-opacity:1;stroke-width:0.28222221"
         inkscape:connector-curvature="0" />
      <path
         id="path1202"
         d="m -1717.7261,-198.45595 c -0.235,-0.23507 -0.2514,-31.49177 -0.017,-32.10321 0.2379,-0.61973 1.1597,-0.55909 1.5121,0.0995 0.3155,0.5894 0.431,30.93731 0.1209,31.74548 -0.1704,0.44391 -1.2568,0.61754 -1.6161,0.25826 z"
         style="fill:#275c8a;fill-opacity:1;stroke-width:0.28222221"
         inkscape:connector-curvature="0" />
      <path
         id="path1194"
         d="m -1885.3721,-198.61735 c -0.3564,-0.32647 -0.3808,-1.62584 -0.3262,-17.42722 l 0.059,-17.07444 h 3.9304 3.9305 l 4.3303,9.58813 4.3303,9.58813 0.1238,-9.58813 c 0.068,-5.27347 0.1444,-9.62311 0.1696,-9.66585 0.026,-0.0428 1.6502,-0.0428 3.6107,0 l 3.5646,0.0777 0.059,17.19753 c 0.046,13.57115 0,17.24506 -0.2264,17.4229 -0.1565,0.12395 -1.8378,0.22731 -3.7361,0.22969 -2.9972,0.004 -3.5039,-0.0611 -3.8502,-0.49296 -0.2193,-0.2735 -2.2817,-4.71734 -4.583,-9.8752 l -4.1843,-9.37792 -0.1131,9.60352 c -0.096,8.12333 -0.1655,9.64473 -0.4527,9.87088 -0.5245,0.41302 -6.1722,0.34768 -6.6357,-0.0768 z"
         style="fill:#275c8a;fill-opacity:1;stroke-width:0.2527318"
         inkscape:connector-curvature="0" />
      <path
         id="path1192"
         d="m -1846.9523,-198.73059 c -1.9491,-0.65779 -2.9359,-1.26518 -4.6828,-2.88219 -2.398,-2.21969 -4.3233,-6.06534 -5.0357,-10.05846 -0.561,-3.14458 -0.3492,-8.53398 0.4456,-11.33369 1.4918,-5.25515 4.7311,-9.21287 8.8549,-10.81868 1.2544,-0.48848 2.1261,-0.61457 4.187,-0.60566 2.9449,0.0127 4.6917,0.48685 7.0114,1.90312 3.0364,1.85388 5.4749,6.04122 5.5262,9.48942 l 0.023,1.56593 -3.6723,0.0775 -3.6724,0.0775 -0.3556,-1.06144 c -0.8053,-2.40335 -2.2737,-3.45236 -4.8457,-3.46184 -2.8599,-0.0105 -4.3421,1.35412 -5.466,5.03293 -0.7079,2.31725 -0.7029,6.25703 0.011,8.91495 1.0199,3.79503 3.2882,5.60203 6.4195,5.11417 1.6521,-0.25741 3.5239,-1.4564 4.1689,-2.67054 0.2801,-0.52742 0.5094,-1.06273 0.5094,-1.18957 0,-0.12683 -1.0439,-0.26681 -2.3198,-0.31104 l -2.3198,-0.0804 -0.064,-3.34664 c -0.043,-2.22611 0.023,-3.47816 0.1975,-3.73944 0.3538,-0.53157 11.2798,-0.58211 11.7032,-0.0541 0.2002,0.24963 0.2716,2.76984 0.2716,9.58563 0,8.85335 -0.019,9.25939 -0.4378,9.53911 -0.552,0.36844 -3.9812,0.38373 -4.5259,0.0202 -0.2418,-0.16137 -0.4685,-0.74708 -0.5574,-1.44024 -0.1473,-1.14852 -0.1583,-1.1605 -0.6526,-0.70929 -2.3628,2.15667 -3.7565,2.75436 -6.7267,2.88482 -1.8431,0.081 -2.7397,-0.0182 -3.9953,-0.442 z"
         style="fill:#275c8a;fill-opacity:1;stroke-width:0.2527318"
         inkscape:connector-curvature="0" />
      <path
         id="path4185-5-9"
         d="m -1817.2616,-198.64106 c -4.3692,-1.21445 -7.314,-4.75685 -8.0263,-9.655 -0.4249,-2.92209 -0.446,-2.90687 3.8923,-2.81484 l 3.6522,0.0775 0.2599,1.27 c 0.5626,2.74951 1.6841,3.66889 4.4757,3.66889 2.2496,0 3.4916,-0.5904 3.9178,-1.86238 0.7954,-2.37388 -0.2645,-3.17864 -7.3795,-5.60338 -5.5604,-1.89494 -7.8833,-4.65212 -8.095,-9.60868 -0.1298,-3.03777 0.459,-5.03053 2.1329,-7.21894 2.1967,-2.87185 4.9039,-4.05426 9.2438,-4.03738 3.0318,0.0118 4.5418,0.43402 6.7589,1.88999 2.7778,1.82403 4.2717,4.53279 4.3097,7.8141 l 0.021,1.83445 -3.6827,0.0776 c -3.3607,0.0708 -3.6936,0.0338 -3.8074,-0.42334 -0.6682,-2.68337 -1.4449,-3.31355 -4.0907,-3.31919 -1.6477,-0.004 -1.9125,0.0705 -2.433,0.68025 -0.7751,0.90815 -0.7703,2.05539 0.012,2.82268 0.5773,0.56625 3.2203,1.72847 4.8359,2.12657 1.43,0.35235 4.6216,1.6128 5.5449,2.18988 1.967,1.22926 3.2184,2.67147 3.9699,4.57504 0.6957,1.7622 0.7188,1.93378 0.6355,4.73746 -0.073,2.46166 -0.1813,3.15107 -0.7038,4.48285 -1.1425,2.91176 -2.9274,4.61811 -6.1648,5.89331 -2.1277,0.8381 -6.9585,1.04769 -9.2792,0.4026 z"
         style="fill:#275c8a;fill-opacity:1;stroke-width:0.2527318"
         inkscape:connector-curvature="0" />
    </g>
    <path
       style="fill:#275c8a;fill-opacity:1;stroke-width:0.28222221"
       d="m 3.3246053,108.47463 c -0.43715,-0.35399 -0.62393,-0.81305 -0.62393,-1.53351 0,-1.30455 0.18904,-1.59643 1.3474,-2.08042 1.65633,-0.69206 2.9423798,0.23676 2.9423798,2.12505 0,1.75319 -2.2239598,2.65645 -3.6658498,1.48888 z"
       id="path1196"
       inkscape:connector-curvature="0" />
    <path
       style="fill:#275c8a;fill-opacity:1;stroke-width:0.28222221"
       d="m 3.3246053,157.02378 c -0.43715,-0.35399 -0.62393,-0.81305 -0.62393,-1.53351 0,-1.30455 0.18904,-1.59643 1.3474,-2.08042 1.65633,-0.69206 2.9423798,0.23676 2.9423798,2.12505 0,1.75319 -2.2239598,2.65645 -3.6658498,1.48888 z"
       id="path1196-0"
       inkscape:connector-curvature="0" />
    <path
       style="fill:#275c8a;fill-opacity:1;stroke-width:0.28222221"
       d="m 180.7194,157.02378 c -0.43715,-0.35399 -0.62393,-0.81305 -0.62393,-1.53351 0,-1.30455 0.18904,-1.59643 1.3474,-2.08042 1.65633,-0.69206 2.94238,0.23676 2.94238,2.12505 0,1.75319 -2.22396,2.65645 -3.66585,1.48888 z"
       id="path1196-9"
       inkscape:connector-curvature="0" />
    <path
       style="fill:#275c8a;fill-opacity:1;stroke-width:0.28222221"
       d="m 180.7194,108.47463 c -0.43715,-0.35399 -0.62393,-0.81305 -0.62393,-1.53351 0,-1.30455 0.18904,-1.59643 1.3474,-2.08042 1.65633,-0.69206 2.94238,0.23676 2.94238,2.12505 0,1.75319 -2.22396,2.65645 -3.66585,1.48888 z"
       id="path1196-6"
       inkscape:connector-curvature="0" />
    <path
       style="fill:#275c8a;fill-opacity:1;stroke-width:0.36809555"
       d="m 184.38525,166.42248 c 0,1.10577 -0.2581,1.6465 -1.2183,2.55338 -2.6014,2.4568 -9.0353,4.49071 -17.6686,5.58584 -15.0507,1.90917 -45.0772,1.55736 -53.8372,-0.63075 -4.7489,-1.18608 -8.9298,-2.78312 -12.453296,-4.75723 -1.5948,-0.89342 -2.9843,-1.62407 -3.0882,-1.62407 -0.1037,0 -1.1296,0.5799 -2.2794,1.28929 -4.404903,2.71679 -10.449007,4.79092 -16.667307,5.71879 -11.6136,1.73307 -39.4826,1.72053 -53.4184,-0.0243 -11.7678,-1.47295 -20.2830995,-4.75864 -20.9131995,-8.06904 -0.34371,-1.80517 -0.1819,-1.9819 1.9144,-2.09795 1.9788,-0.11013 1.9934,-0.10246 4.1197,2.00331 2.5417995,2.51776 5.6484995,3.83665 12.4430995,5.28142 5.1328,1.09144 11.9433,1.89239 12.3415,1.45145 0.1553,-0.17213 0.6348,-1.28917 1.0653,-2.48192 4.0327,-11.17375 4.9779,-13.9579 4.8226,-14.20021 -0.099,-0.15407 -1.8373,-0.15856 -3.8631,-0.0128 -7.998,0.58952 -8.5427,0.56838 -8.6761,-0.33747 -0.084,-0.57811 0.1311,-0.90457 0.7496,-1.13049 3.2087,-1.1716 30.4984,-1.71475 40.2306,-0.80083 12.2198,1.14752 20.496104,3.46114 26.824507,7.49925 l 1.3941,0.88946 2.1972,-1.35667 c 6.049196,-3.73522 14.672396,-6.07573 25.797596,-7.00284 9.542,-0.7952 34.2562,-0.29303 36.8728,0.74922 0.611,0.24334 0.8335,0.58618 0.7496,1.15546 -0.1311,0.88985 -0.8701,0.96771 -5.8763,0.61616 l -2.384,-0.16739 -2.9583,8.27485 c -1.627,4.55129 -2.9583,8.43904 -2.9583,8.63947 0,0.51229 8.0159,0.0538 14.0664,-0.80339 10.5662,-1.49806 16.132,-3.51583 17.5375,-6.35762 0.6095,-1.23231 0.6715,-1.25946 2.878,-1.25946 h 2.2555 z m -33.1949,-9.97565 c 0,-0.0371 0,-0.0589 -0.013,-0.0666 -0.1216,-0.11653 -2.71119,-0.27188 -5.7547,-0.34348 l -5.53309,-0.12974 -1.99471,5.55013 c -1.0969,3.05246 -2.5528,7.06098 -3.2357,8.90816 -0.9249,2.50175 -1.1207,3.4039 -0.7667,3.53479 0.2615,0.0961 2.9141,0.13024 5.8941,0.0743 l 5.41849,-0.0999 3.0964,-8.64076 c 1.5968,-4.45535 2.8338,-8.23553 2.8821,-8.78713 z m -13.6601,-0.19261 c 0,-0.3198 -6.3557,-0.29368 -9.5156,0.0384 l -2.2019,0.23234 -2.7648,7.72555 c -1.5209,4.24903 -2.7649,7.92648 -2.7649,8.17225 0,0.49078 1.8614,0.77369 7.4969,1.13704 l 3.5616,0.22898 3.0958,-8.63166 c 1.7028,-4.74763 3.0942,-8.75448 3.0929,-8.90356 z m -14.2483,0.91789 c 0,-0.54225 -0.3382,-0.51254 -5.7651,0.49704 -1.6243,0.30225 -3.758,0.77996 -4.7416,1.06159 l -1.7881,0.51165 -1.5341,4.16746 c -2.2905,6.22327 -2.2909,5.7024 0,6.65539 2.2965,0.95259 8.1019,2.39699 8.4159,2.0941 0.3204,-0.30892 5.4062,-14.40797 5.4062,-14.98723 z m -15.0637,3.52158 c 0.014,-0.42289 -2.9174,0.94838 -5.8351,2.74394 -1.0825,0.66623 -1.968,1.35398 -1.968,1.52893 0,0.34221 2.0718,1.7423 4.0004,2.70283 l 1.1895,0.59233 1.2087,-3.5189 c 0.6648,-1.93543 1.2916,-3.73612 1.3935,-4.00212 0,-0.0179 0.013,-0.0333 0.013,-0.0474 z m -15.514796,4.26493 -0.9239,-0.69696 c -1.610403,-1.21452 -4.851707,-2.91967 -5.285307,-2.78031 -0.2295,0.0743 -1.0698,1.91685 -1.867,4.09535 -0.7971,2.1785 -1.4511,4.07896 -1.4523,4.22316 -0.013,0.57454 6.865104,-2.69873 8.604607,-4.09804 z m -8.599907,-4.60303 c -1e-4,-0.0282 0,-0.0487 -0.013,-0.0589 -0.2291,-0.35756 -7.3152,-2.60677 -7.5373,-2.39251 -0.081,0.0781 -1.3235,3.4281 -2.7627,7.4456 -1.4393,4.01735 -2.6173,7.39396 -2.6173,7.50372 0,0.30751 3.2466,-0.20644 6.4288,-1.01778 l 2.867,-0.73143 1.911,-5.2476 c 0.9852,-2.70592 1.7238,-5.07422 1.7215,-5.50108 z m -10.0248,-2.82207 c 0,-0.0935 -0.028,-0.14971 -0.067,-0.17149 -0.8025,-0.45708 -8.4586,-1.16494 -8.7832,-0.81197 -0.1704,0.18532 -1.6034,3.99649 -3.1849,8.46939 -1.5815,4.47291 -2.8725,8.35067 -2.8698,8.61707 0,0.47578 3.3906,0.41303 8.1132,-0.15024 l 1.5471,-0.18467 2.8067,-7.84595 c 1.7243,-4.82048 2.48,-7.26884 2.4375,-7.92214 z m -11.1712,-1.0986 c 0.015,-0.33913 -1.1835,-0.45208 -4.8062,-0.45208 h -4.8267 l -3.0517,8.58464 c -1.6788,4.72138 -3.0497,8.79278 -3.0457,9.04714 0,0.35629 1.1011,0.4394 4.7863,0.36141 l 4.7794,-0.10118 3.0717,-8.49398 c 1.6895,-4.67167 3.081,-8.69748 3.0929,-8.94595 z m -11.975,-0.1615 c 0,-0.15983 -1.9482,-0.29058 -4.3297,-0.29058 h -4.3305 l -0.5649,1.3044 c -0.3109,0.71733 -1.7359,4.57268 -3.1671,8.5675 -1.4312,3.99482 -2.6022,7.36772 -2.6022,7.49579 0,0.33503 8.3535,0.74896 8.6693,0.42956 0.2805,-0.28381 6.3251,-17.01397 6.3251,-17.50667 z"
       id="path1236-5"
       inkscape:connector-curvature="0" />
  </g>
</svg>
