<?xml version="1.0" encoding="UTF-8" standalone="no"?>
<!-- Created with Inkscape (http://www.inkscape.org/) -->

<svg
   xmlns:dc="http://purl.org/dc/elements/1.1/"
   xmlns:cc="http://creativecommons.org/ns#"
   xmlns:rdf="http://www.w3.org/1999/02/22-rdf-syntax-ns#"
   xmlns:svg="http://www.w3.org/2000/svg"
   xmlns="http://www.w3.org/2000/svg"
   xmlns:sodipodi="http://sodipodi.sourceforge.net/DTD/sodipodi-0.dtd"
   xmlns:inkscape="http://www.inkscape.org/namespaces/inkscape"
   width="82.028099mm"
   height="71.32592mm"
   viewBox="0 0 82.028099 71.325921"
   version="1.1"
   id="svg8"
   inkscape:version="0.92.5 (2060ec1f9f, 2020-04-08)"
   sodipodi:docname="ngschool-logo-small-2022.svg"
   inkscape:export-filename="/home/kzkedzierska/Downloads/NGSchool/2022_logo/ngschool-logo-small-2022.png"
   inkscape:export-xdpi="300"
   inkscape:export-ydpi="300">
  <defs
     id="defs2">
    <marker
       inkscape:stockid="TriangleOutM"
       orient="auto"
       refY="0"
       refX="0"
       id="TriangleOutM"
       style="overflow:visible"
       inkscape:isstock="true"
       inkscape:collect="always">
      <path
         id="path4756"
         d="M 5.77,0 -2.88,5 V -5 Z"
         style="fill:#000000;fill-opacity:1;fill-rule:evenodd;stroke:#000000;stroke-width:1.00000003pt;stroke-opacity:1"
         transform="scale(0.4)"
         inkscape:connector-curvature="0" />
    </marker>
    <marker
       inkscape:stockid="TriangleOutM"
       orient="auto"
       refY="0"
       refX="0"
       id="TriangleOutM-5"
       style="overflow:visible"
       inkscape:isstock="true"
       inkscape:collect="always">
      <path
         id="path4756-7"
         d="M 5.77,0 -2.88,5 V -5 Z"
         style="fill:#000000;fill-opacity:1;fill-rule:evenodd;stroke:#000000;stroke-width:1.00000003pt;stroke-opacity:1"
         transform="scale(0.4)"
         inkscape:connector-curvature="0" />
    </marker>
  </defs>
  <sodipodi:namedview
     id="base"
     pagecolor="#ffffff"
     bordercolor="#666666"
     borderopacity="1.0"
     inkscape:pageopacity="1"
     inkscape:pageshadow="2"
     inkscape:zoom="1.4142136"
     inkscape:cx="170.73851"
     inkscape:cy="104.83539"
     inkscape:document-units="mm"
     inkscape:current-layer="text978-6-3-8-7"
     showgrid="false"
     inkscape:window-width="1860"
     inkscape:window-height="1016"
     inkscape:window-x="60"
     inkscape:window-y="27"
     inkscape:window-maximized="1"
     showguides="false"
     inkscape:guide-bbox="true"
     inkscape:lockguides="true"
     inkscape:pagecheckerboard="true"
     fit-margin-top="1"
     fit-margin-left="1"
     fit-margin-right="1"
     fit-margin-bottom="1">
    <inkscape:grid
       type="xygrid"
       id="grid9713"
       originx="1.0000002"
       originy="-1.3164069" />
  </sodipodi:namedview>
  <metadata
     id="metadata5">
    <rdf:RDF>
      <cc:Work
         rdf:about="">
        <dc:format>image/svg+xml</dc:format>
        <dc:type
           rdf:resource="http://purl.org/dc/dcmitype/StillImage" />
        <dc:title />
      </cc:Work>
    </rdf:RDF>
  </metadata>
  <g
     inkscape:label="Layer 1"
     inkscape:groupmode="layer"
     id="layer1"
     transform="translate(127.65099,-128.43261)">
    <path
       style="fill:#ff9100;fill-opacity:1;stroke-width:0.26458332"
       d="m -113.67997,181.60887 a 2.0315456,2.0315456 0 0 1 -2.03155,2.03155 2.0315456,2.0315456 0 0 1 -2.03154,-2.03155 2.0315456,2.0315456 0 0 1 2.03154,-2.03154 2.0315456,2.0315456 0 0 1 2.03155,2.03154 z"
       id="path9-4" />
    <path
       style="fill:#ff9100;fill-opacity:1;stroke-width:1.5;stroke-miterlimit:4;stroke-dasharray:none"
       d="m -99.648172,162.85251 a 2.0315456,2.0315456 0 0 1 -2.031548,2.03154 2.0315456,2.0315456 0 0 1 -2.03154,-2.03154 2.0315456,2.0315456 0 0 1 2.03154,-2.03155 2.0315456,2.0315456 0 0 1 2.031548,2.03155 z"
       id="path9-3-0" />
    <path
       style="fill:#ff9100;fill-opacity:1;stroke-width:1.5;stroke-miterlimit:4;stroke-dasharray:none"
       d="m -76.875956,177.8765 a 2.0315456,2.0315456 0 0 1 -2.031545,2.03154 2.0315456,2.0315456 0 0 1 -2.031546,-2.03154 2.0315456,2.0315456 0 0 1 2.031546,-2.03155 2.0315456,2.0315456 0 0 1 2.031545,2.03155 z"
       id="path9-6-6" />
    <path
       style="fill:#ff9100;fill-opacity:1;stroke-width:0.26458332"
       d="m -53.064341,143.00951 a 2.0315456,2.0315456 0 0 1 -2.031545,2.03154 2.0315456,2.0315456 0 0 1 -2.031546,-2.03154 2.0315456,2.0315456 0 0 1 2.031546,-2.03155 2.0315456,2.0315456 0 0 1 2.031545,2.03155 z"
       id="path9-7-2" />
    <path
       style="fill:none;stroke:#ff9100;stroke-width:2;stroke-linecap:butt;stroke-linejoin:miter;stroke-miterlimit:4;stroke-dasharray:none;stroke-opacity:1"
       d="m -116.04228,181.75067 14.45706,-19.08708 23.055687,15.40195 23.43365,-35.05597"
       id="path4558-9"
       inkscape:connector-curvature="0"
       inkscape:export-xdpi="96"
       inkscape:export-ydpi="96" />
    <path
       style="fill:none;stroke:#275c8a;stroke-width:2;stroke-linecap:round;stroke-linejoin:miter;stroke-miterlimit:4;stroke-dasharray:none;stroke-opacity:1"
       d="m -119.01375,171.28089 c 13.15363,8.48414 26.735494,13.78766 32.062869,-0.008 7.43226,-15.18544 10.996069,-20.63146 29.004894,-12.95692"
       id="path4560-9"
       inkscape:connector-curvature="0"
       sodipodi:nodetypes="ccc"
       inkscape:export-xdpi="96"
       inkscape:export-ydpi="96" />
    <path
       style="fill:none;stroke:#275c8a;stroke-width:1.5;stroke-linecap:round;stroke-linejoin:miter;stroke-miterlimit:4;stroke-dasharray:none;stroke-opacity:1"
       d="m -102.02655,178.91851 -1.51086,-5.67992"
       id="path4562-0"
       inkscape:connector-curvature="0"
       inkscape:export-xdpi="96"
       inkscape:export-ydpi="96" />
    <path
       style="fill:none;stroke:#275c8a;stroke-width:1.5;stroke-linecap:round;stroke-linejoin:miter;stroke-miterlimit:4;stroke-dasharray:none;stroke-opacity:1"
       d="m -97.12115,179.711 -3.16074,-11.34781"
       id="path4562-5-8"
       inkscape:connector-curvature="0"
       sodipodi:nodetypes="cc"
       inkscape:export-xdpi="96"
       inkscape:export-ydpi="96" />
    <path
       style="fill:none;stroke:#275c8a;stroke-width:1.5;stroke-linecap:round;stroke-linejoin:miter;stroke-miterlimit:4;stroke-dasharray:none;stroke-opacity:1"
       d="m -93.504574,178.15492 -1.510865,-5.67993"
       id="path4562-56-1"
       inkscape:connector-curvature="0"
       inkscape:export-xdpi="96"
       inkscape:export-ydpi="96" />
    <path
       style="fill:none;stroke:#275c8a;stroke-width:1.5;stroke-linecap:round;stroke-linejoin:miter;stroke-miterlimit:4;stroke-dasharray:none;stroke-opacity:1"
       d="m -81.175368,170.65716 -1.824037,-7.45023"
       id="path4562-2-3"
       inkscape:connector-curvature="0"
       sodipodi:nodetypes="cc"
       inkscape:export-xdpi="96"
       inkscape:export-ydpi="96" />
    <path
       style="fill:none;stroke:#275c8a;stroke-width:1.5;stroke-linecap:round;stroke-linejoin:miter;stroke-miterlimit:4;stroke-dasharray:none;stroke-opacity:1"
       d="m -76.299015,169.93154 -3.18766,-11.56653"
       id="path4562-9-1"
       inkscape:connector-curvature="0"
       sodipodi:nodetypes="cc"
       inkscape:export-xdpi="96"
       inkscape:export-ydpi="96" />
    <path
       style="fill:none;stroke:#275c8a;stroke-width:1.5;stroke-linecap:round;stroke-linejoin:miter;stroke-miterlimit:4;stroke-dasharray:none;stroke-opacity:1"
       d="m -73.016078,164.80224 -2.114096,-9.03299"
       id="path4562-1-1"
       inkscape:connector-curvature="0"
       inkscape:transform-center-x="0.50919737"
       inkscape:transform-center-y="2.823606"
       sodipodi:nodetypes="cc"
       inkscape:export-xdpi="96"
       inkscape:export-ydpi="96" />
    <path
       style="fill:none;stroke:#000000;stroke-width:1.29999995;stroke-linecap:round;stroke-linejoin:round;stroke-miterlimit:2.5;stroke-dasharray:none;stroke-opacity:1;marker-end:url(#TriangleOutM)"
       d="M -123.45019,188.11919 V 133.12573"
       id="path4609-03"
       inkscape:connector-curvature="0"
       sodipodi:nodetypes="cc"
       inkscape:export-xdpi="96"
       inkscape:export-ydpi="96" />
    <path
       style="fill:none;stroke:#ff9100;stroke-width:2;stroke-linecap:butt;stroke-linejoin:miter;stroke-miterlimit:4;stroke-dasharray:none;stroke-opacity:1"
       d="m -101.58522,162.66359 23.055687,15.40195"
       id="path4558-9-5"
       inkscape:connector-curvature="0"
       sodipodi:nodetypes="cc"
       inkscape:export-xdpi="96"
       inkscape:export-ydpi="96" />
    <path
       style="fill:none;stroke:#275c8a;stroke-width:1.5;stroke-linecap:round;stroke-linejoin:miter;stroke-miterlimit:4;stroke-dasharray:none;stroke-opacity:1"
       d="m -69.953014,160.34501 -0.869765,-4.39772"
       id="path4562-56-1-2"
       inkscape:connector-curvature="0"
       sodipodi:nodetypes="cc"
       inkscape:export-xdpi="96"
       inkscape:export-ydpi="96" />
    <g
       transform="matrix(0.26458333,0,0,0.26458333,-126.65099,129.43261)"
       style="font-style:normal;font-variant:normal;font-weight:normal;font-stretch:normal;font-size:40px;line-height:1.25;font-family:'Noto Mono';-inkscape-font-specification:'Noto Mono';letter-spacing:0px;word-spacing:0px;fill:#000000;fill-opacity:1;stroke:none"
       id="flowRoot968" />
    <path
       style="fill:none;stroke:#000000;stroke-width:1.29999995;stroke-linecap:round;stroke-linejoin:round;stroke-miterlimit:2.5;stroke-dasharray:none;stroke-opacity:1;marker-end:url(#TriangleOutM-5)"
       d="m -123.45019,188.11919 73.134216,-0.31747"
       id="path4609-03-4"
       inkscape:connector-curvature="0"
       sodipodi:nodetypes="cc"
       inkscape:export-xdpi="96"
       inkscape:export-ydpi="96" />
    <g
       id="g5441"
       transform="translate(-115.96433,87.566836)">
      <g
         aria-label="chool2022"
         style="font-style:normal;font-variant:normal;font-weight:normal;font-stretch:normal;font-size:10.58333302px;line-height:1.25;font-family:Gayathri;-inkscape-font-specification:Gayathri;letter-spacing:0px;word-spacing:0px;fill:#000000;fill-opacity:1;stroke:none;stroke-width:0.26458332"
         id="text5389">
        <path
           d="m 21.496438,109.30034 c -0.217041,0 -0.397908,0.093 -0.418579,0.21187 -0.129191,0.7183 -0.862996,1.20923 -1.570963,1.20923 -1.219564,0 -1.834514,-1.02319 -1.834514,-2.14457 0,-1.13688 0.61495,-2.20658 1.865519,-2.20658 0.707968,0 1.42627,0.45992 1.529623,1.20406 0.0155,0.12402 0.201538,0.21704 0.418579,0.21704 0.139526,0 0.418579,-0.062 0.418579,-0.23771 0,-0.21705 -0.170532,-0.57361 -0.294556,-0.73898 -0.449585,-0.62011 -1.328084,-0.91467 -2.08256,-0.91467 -1.612304,0 -2.702677,1.0542 -2.697509,2.67684 0,1.59163 1.064534,2.61483 2.640665,2.61483 0.785482,0 1.705322,-0.3204 2.17041,-0.97669 0.108521,-0.15503 0.273885,-0.50126 0.273885,-0.69246 0,-0.1602 -0.294555,-0.22221 -0.418579,-0.22221 z"
           style="font-style:normal;font-variant:normal;font-weight:normal;font-stretch:normal;font-family:Gayathri;-inkscape-font-specification:Gayathri;stroke-width:0.26458332"
           id="path1590" />
        <path
           d="m 27.020649,111.1917 c 0.232544,0 0.423746,-0.10336 0.423746,-0.23255 v -2.74402 c 0,-1.31775 -0.925008,-2.32027 -2.25826,-2.32027 -0.661458,0 -1.333252,0.25322 -1.653645,0.82682 v -2.55798 c 0,-0.12919 -0.186036,-0.23254 -0.41858,-0.23254 -0.232543,0 -0.423746,0.10335 -0.423746,0.23254 v 6.79545 c 0,0.12919 0.191203,0.23255 0.423746,0.23255 0.232544,0 0.41858,-0.10336 0.41858,-0.23255 v -2.58899 c 0,-1.32808 0.72347,-1.99987 1.591634,-1.99471 0.74414,0 1.477946,0.61495 1.477946,1.83968 v 2.74402 c 0,0.12919 0.186035,0.23255 0.418579,0.23255 z"
           style="font-style:normal;font-variant:normal;font-weight:normal;font-stretch:normal;font-family:Gayathri;-inkscape-font-specification:Gayathri;stroke-width:0.26458332"
           id="path1592" />
        <path
           d="m 30.674173,105.90003 c -1.591634,0 -2.713013,1.07487 -2.713013,2.64583 0,1.57097 1.121379,2.64584 2.713013,2.64584 1.591634,0 2.713012,-1.07487 2.713012,-2.64584 0,-1.57096 -1.121378,-2.64583 -2.713012,-2.64583 z m 0,0.47026 c 1.20406,0 1.870686,1.08003 1.870686,2.17557 0,1.09554 -0.666626,2.17558 -1.870686,2.17558 -1.204061,0 -1.870687,-1.08004 -1.870687,-2.17558 0,-1.09554 0.666626,-2.17557 1.870687,-2.17557 z"
           style="font-style:normal;font-variant:normal;font-weight:normal;font-stretch:normal;font-family:Gayathri;-inkscape-font-specification:Gayathri;stroke-width:0.26458332"
           id="path1594" />
        <path
           d="m 36.616962,105.90003 c -1.591634,0 -2.713013,1.07487 -2.713013,2.64583 0,1.57097 1.121379,2.64584 2.713013,2.64584 1.591634,0 2.713012,-1.07487 2.713012,-2.64584 0,-1.57096 -1.121378,-2.64583 -2.713012,-2.64583 z m 0,0.47026 c 1.204061,0 1.870687,1.08003 1.870687,2.17557 0,1.09554 -0.666626,2.17558 -1.870687,2.17558 -1.204061,0 -1.870687,-1.08004 -1.870687,-2.17558 0,-1.09554 0.666626,-2.17557 1.870687,-2.17557 z"
           style="font-style:normal;font-variant:normal;font-weight:normal;font-stretch:normal;font-family:Gayathri;-inkscape-font-specification:Gayathri;stroke-width:0.26458332"
           id="path1596" />
        <path
           d="m 39.975929,104.1637 v 6.79545 c 0,0.12919 0.186035,0.23255 0.423747,0.23255 0.232544,0 0.418579,-0.10336 0.418579,-0.23255 v -6.79545 c 0,-0.12919 -0.186035,-0.23254 -0.418579,-0.23254 -0.237712,0 -0.423747,0.10335 -0.423747,0.23254 z"
           style="font-style:normal;font-variant:normal;font-weight:normal;font-stretch:normal;font-family:Gayathri;-inkscape-font-specification:Gayathri;stroke-width:0.26458332"
           id="path1598" />
        <path
           d="m 46.016905,111.06767 c 0.232544,0 0.418579,-0.10335 0.418579,-0.23771 0,-0.12919 -0.186035,-0.23254 -0.418579,-0.23254 h -3.446818 c 0.02067,-0.56328 0.129191,-0.94568 0.294556,-1.22473 0.26355,-0.44442 0.728638,-0.64079 1.167887,-0.85783 1.080038,-0.54261 2.439128,-1.2144 2.439128,-2.52181 0,-1.28675 -1.131714,-2.06189 -2.340942,-2.06189 -0.485759,0 -0.950847,0.0878 -1.353923,0.31522 -0.563273,0.31006 -1.018026,0.99736 -1.018026,1.65365 0,0.0724 0.0052,0.14469 0.0155,0.21187 0.02067,0.12403 0.201538,0.21188 0.418579,0.21188 0.134359,0 0.413412,-0.0568 0.413412,-0.23255 0,-0.0517 -0.01034,-0.10335 -0.01034,-0.16019 0,-0.42892 0.253214,-0.97669 0.583943,-1.2299 0.26355,-0.20671 0.578776,-0.29973 0.950847,-0.29973 0.862996,0 1.493448,0.73898 1.493448,1.57613 0,1.11622 -1.198893,1.71049 -2.149739,2.18075 -0.54777,0.27388 -1.07487,0.5116 -1.405599,1.06453 -0.217041,0.36691 -0.346232,0.86817 -0.346232,1.60714 0,0.13436 0.191203,0.23771 0.423747,0.23771 z"
           style="font-style:normal;font-variant:normal;font-weight:normal;font-stretch:normal;font-family:Gayathri;-inkscape-font-specification:Gayathri;stroke-width:0.26458332"
           id="path1600" />
        <path
           d="m 49.902973,111.1917 c 1.669149,0 2.501139,-1.81385 2.501139,-3.62769 0,-1.81901 -0.83199,-3.63285 -2.501139,-3.63285 -1.669149,0 -2.501139,1.81901 -2.501139,3.63285 0,1.81384 0.83199,3.62769 2.501139,3.62769 z m 0,-6.79029 c 1.085205,0 1.627808,1.5813 1.627808,3.1626 0,1.57613 -0.542603,3.15743 -1.627808,3.15743 -1.085205,0 -1.627807,-1.5813 -1.627807,-3.15743 0,-1.5813 0.542602,-3.1626 1.627807,-3.1626 z"
           style="font-style:normal;font-variant:normal;font-weight:normal;font-stretch:normal;font-family:Gayathri;-inkscape-font-specification:Gayathri;stroke-width:0.26458332"
           id="path1602" />
        <path
           d="m 57.6286,111.06767 c 0.232544,0 0.418579,-0.10335 0.418579,-0.23771 0,-0.12919 -0.186035,-0.23254 -0.418579,-0.23254 h -3.446818 c 0.02067,-0.56328 0.129191,-0.94568 0.294555,-1.22473 0.26355,-0.44442 0.728638,-0.64079 1.167888,-0.85783 1.080037,-0.54261 2.439127,-1.2144 2.439127,-2.52181 0,-1.28675 -1.131714,-2.06189 -2.340942,-2.06189 -0.485759,0 -0.950846,0.0878 -1.353923,0.31522 -0.563273,0.31006 -1.018025,0.99736 -1.018025,1.65365 0,0.0724 0.0052,0.14469 0.0155,0.21187 0.02067,0.12403 0.201538,0.21188 0.418579,0.21188 0.134359,0 0.413411,-0.0568 0.413411,-0.23255 0,-0.0517 -0.01034,-0.10335 -0.01034,-0.16019 0,-0.42892 0.253214,-0.97669 0.583944,-1.2299 0.263549,-0.20671 0.578776,-0.29973 0.950846,-0.29973 0.862996,0 1.493449,0.73898 1.493449,1.57613 0,1.11622 -1.198893,1.71049 -2.14974,2.18075 -0.54777,0.27388 -1.074869,0.5116 -1.405599,1.06453 -0.217041,0.36691 -0.346232,0.86817 -0.346232,1.60714 0,0.13436 0.191203,0.23771 0.423747,0.23771 z"
           style="font-style:normal;font-variant:normal;font-weight:normal;font-stretch:normal;font-family:Gayathri;-inkscape-font-specification:Gayathri;stroke-width:0.26458332"
           id="path1604" />
        <path
           d="m 63.411192,111.06767 c 0.232544,0 0.41858,-0.10335 0.41858,-0.23771 0,-0.12919 -0.186036,-0.23254 -0.41858,-0.23254 h -3.446817 c 0.02067,-0.56328 0.129191,-0.94568 0.294555,-1.22473 0.26355,-0.44442 0.728638,-0.64079 1.167887,-0.85783 1.080038,-0.54261 2.439128,-1.2144 2.439128,-2.52181 0,-1.28675 -1.131714,-2.06189 -2.340942,-2.06189 -0.485759,0 -0.950847,0.0878 -1.353923,0.31522 -0.563273,0.31006 -1.018025,0.99736 -1.018025,1.65365 0,0.0724 0.0052,0.14469 0.0155,0.21187 0.02067,0.12403 0.201539,0.21188 0.41858,0.21188 0.134358,0 0.413411,-0.0568 0.413411,-0.23255 0,-0.0517 -0.01034,-0.10335 -0.01034,-0.16019 0,-0.42892 0.253214,-0.97669 0.583943,-1.2299 0.26355,-0.20671 0.578776,-0.29973 0.950847,-0.29973 0.862996,0 1.493449,0.73898 1.493449,1.57613 0,1.11622 -1.198894,1.71049 -2.14974,2.18075 -0.54777,0.27388 -1.07487,0.5116 -1.405599,1.06453 -0.217041,0.36691 -0.346232,0.86817 -0.346232,1.60714 0,0.13436 0.191203,0.23771 0.423747,0.23771 z"
           style="font-style:normal;font-variant:normal;font-weight:normal;font-stretch:normal;font-family:Gayathri;-inkscape-font-specification:Gayathri;stroke-width:0.26458332"
           id="path1606" />
      </g>
      <g
         aria-label="NGS"
         style="font-style:normal;font-variant:normal;font-weight:normal;font-stretch:normal;font-size:10.58329964px;line-height:1.25;font-family:'Noto Mono';-inkscape-font-specification:'Noto Mono';letter-spacing:0px;word-spacing:0px;fill:#000000;fill-opacity:1;stroke:none;stroke-width:0.5;stroke-miterlimit:4;stroke-dasharray:none"
         id="text978-6-3-8-7">
        <path
           d="m -2.5587645,110.93205 h 1.69333507 v -8.22961 H -2.5587645 v 5.5993 l -3.2624922,-5.5993 h -1.7384907 v 8.22961 h 1.6933351 v -5.6896 z"
           style="font-style:normal;font-variant:normal;font-weight:bold;font-stretch:normal;font-size:11.28890038px;font-family:'Nimbus Sans';-inkscape-font-specification:'Nimbus Sans Bold';letter-spacing:0px;stroke:#000000;stroke-width:0.5;stroke-miterlimit:4;stroke-dasharray:none;stroke-opacity:1"
           id="path1609" />
        <path
           d="M 7.8721466,106.5068 H 4.5757877 v 1.41112 h 1.8739574 c -0.045156,0.46284 -0.1580446,0.74506 -0.4064004,1.03858 -0.4064004,0.49671 -1.0385788,0.79022 -1.6820461,0.79022 -1.3772459,0 -2.3480913,-1.19663 -2.3480913,-2.88996 0,-1.77236 0.8579564,-2.8448 2.3029357,-2.8448 0.5870228,0 1.0837344,0.16933 1.4562681,0.49671 0.2370669,0.2032 0.3612448,0.39511 0.5080005,0.82409 h 1.591735 c -0.2032002,-1.70463 -1.5804461,-2.76578 -3.5672925,-2.76578 -2.3706691,0 -3.98498187,1.74978 -3.98498187,4.31236 0,2.49484 1.62560167,4.31236 3.84951507,4.31236 1.1063122,0 1.8513796,-0.39511 2.483558,-1.3208 l 0.2032002,1.08373 h 1.0160011 z"
           style="font-style:normal;font-variant:normal;font-weight:bold;font-stretch:normal;font-size:11.28890038px;font-family:'Nimbus Sans';-inkscape-font-specification:'Nimbus Sans Bold';letter-spacing:0px;stroke:#000000;stroke-width:0.5;stroke-miterlimit:4;stroke-dasharray:none;stroke-opacity:1"
           id="path1611" />
        <path
           d="m 15.46956,105.20858 c -0.01129,-1.70462 -1.151468,-2.6416 -3.228626,-2.6416 -1.975558,0 -3.1157364,0.92569 -3.1157364,2.52871 0,1.27565 0.6434673,1.89654 2.3142244,2.21263 l 1.151468,0.22577 c 1.12889,0.21449 1.546579,0.53058 1.546579,1.19663 0,0.68862 -0.632178,1.10631 -1.659468,1.10631 -1.151468,0 -1.794935,-0.48542 -1.85138,-1.36596 H 8.9784418 c 0.1016002,1.76107 1.3095122,2.72063 3.4092482,2.72063 2.122313,0 3.375381,-0.98214 3.375381,-2.66418 0,-1.29823 -0.654756,-1.97556 -2.178758,-2.26907 l -1.286934,-0.24836 c -1.207913,-0.23706 -1.557869,-0.47413 -1.557869,-1.07244 0,-0.62089 0.541868,-1.016 1.422402,-1.016 1.072445,0 1.670757,0.45155 1.727202,1.28693 z"
           style="font-style:normal;font-variant:normal;font-weight:bold;font-stretch:normal;font-size:11.28890038px;font-family:'Nimbus Sans';-inkscape-font-specification:'Nimbus Sans Bold';letter-spacing:0px;stroke:#000000;stroke-width:0.5;stroke-miterlimit:4;stroke-dasharray:none;stroke-opacity:1"
           id="path1613" />
      </g>
    </g>
  </g>
</svg>
