<?xml version="1.0" encoding="UTF-8" standalone="no"?>
<!-- Generator: Adobe Illustrator 19.0.0, SVG Export Plug-In . SVG Version: 6.00 Build 0)  -->

<svg
   xmlns:dc="http://purl.org/dc/elements/1.1/"
   xmlns:cc="http://creativecommons.org/ns#"
   xmlns:rdf="http://www.w3.org/1999/02/22-rdf-syntax-ns#"
   xmlns:svg="http://www.w3.org/2000/svg"
   xmlns="http://www.w3.org/2000/svg"
   xmlns:sodipodi="http://sodipodi.sourceforge.net/DTD/sodipodi-0.dtd"
   xmlns:inkscape="http://www.inkscape.org/namespaces/inkscape"
   version="1.1"
   id="Layer_1"
   x="0px"
   y="0px"
   viewBox="-86 35.7 163 42.8"
   style="enable-background:new -86 35.7 163 42.8;"
   xml:space="preserve"
   sodipodi:docname="GXO_logo.svg"
   inkscape:version="0.92.1 r15371"><metadata
     id="metadata67"><rdf:RDF><cc:Work
         rdf:about=""><dc:format>image/svg+xml</dc:format><dc:type
           rdf:resource="http://purl.org/dc/dcmitype/StillImage" /></cc:Work></rdf:RDF></metadata><defs
     id="defs65" /><sodipodi:namedview
     pagecolor="#ffffff"
     bordercolor="#666666"
     borderopacity="1"
     objecttolerance="10"
     gridtolerance="10"
     guidetolerance="10"
     inkscape:pageopacity="0"
     inkscape:pageshadow="2"
     inkscape:window-width="1280"
     inkscape:window-height="1053"
     id="namedview63"
     showgrid="false"
     inkscape:zoom="4.1104294"
     inkscape:cx="44.563022"
     inkscape:cy="-27.917846"
     inkscape:window-x="1280"
     inkscape:window-y="27"
     inkscape:window-maximized="0"
     inkscape:current-layer="g18" /><style
     type="text/css"
     id="style2">
	.st0{fill:#FFFFFF;}
	.st1{fill:#04B8BF;}
	.st2{fill:#117CC1;}
	.st3{fill:#20A0DB;}
</style><g
     id="g60"><g
       id="g18"><path
         class="st0"
         d="M-44.8,53.9c0-5.1,4.5-8.2,9.6-8.2c2.4,0,4.9,0.6,6.3,1.6v3.6c-1.5-1.1-3.1-1.8-5.6-1.8    c-3.2,0-5.4,1.8-5.4,5.1c0,3.2,2.1,5,5,5c1,0,1.6-0.2,2.3-0.4v-2.6h-2.6v-3h7v7.5c-1,0.4-3.9,1.5-7.4,1.5    C-40.6,62.2-44.8,59-44.8,53.9z"
         id="path4"
         style="fill:#140857;fill-opacity:1;opacity:1" /><path
         class="st0"
         d="M-25,46h12v3.2h-7.3v2.7h5.9v3.2h-5.9v3.5h7.3v3.2h-12V46z"
         id="path6"
         style="fill:#140857;fill-opacity:1;opacity:1" /><path
         class="st0"
         d="M-10.2,46h3.5l7.9,9v-9h4.1v15.8H1.8l-7.9-9v9h-4.1V46z"
         id="path8"
         style="fill:#140857;fill-opacity:1;opacity:1" /><path
         class="st0"
         d="M12.9,53.7L7,46h5.3l3.6,5l3.6-5h5.2l-5.9,7.6l6.2,8.1h-5.3l-3.9-5.4l-4,5.4H6.7L12.9,53.7z"
         id="path10"
         style="fill:#140857;fill-opacity:1;opacity:1" /><path
         class="st0"
         d="M24.6,53.9c0-4.8,4.3-8.3,9.6-8.3s9.5,3.5,9.5,8.3s-4.3,8.3-9.5,8.3C28.9,62.2,24.6,58.7,24.6,53.9z     M38.8,53.9c0-3-1.7-5-4.6-5c-2.9,0-4.6,2-4.6,5s1.7,5,4.6,5C37.1,58.9,38.8,56.9,38.8,53.9z"
         id="path12"
         style="fill:#140857;fill-opacity:1;opacity:1" /><path
         class="st0"
         d="M46.1,46h3.5l7.9,9v-9h4.1v15.8h-3.5l-7.9-9v9h-4.1L46.1,46L46.1,46z"
         id="path14"
         style="fill:#140857;fill-opacity:1;opacity:1" /><path
         class="st0"
         d="M65,46h12v3.2h-7.3v2.7h5.9v3.2h-5.9v3.5H77v3.2H65V46z"
         id="path16"
         style="fill:#140857;fill-opacity:1;opacity:1" /></g><g
       id="g42"><path
         class="st1"
         d="M-50.6,77.1c-1.2,0-2-0.4-2.5-0.8l0.3-1.1c0.5,0.4,1.2,0.9,2.2,0.9c0.7,0,1.3-0.3,1.3-0.9    c0-0.5-0.3-0.8-1.5-1.1c-1.5-0.3-2.1-1.1-2.1-2c0-1.1,0.9-1.8,2.4-1.8c0.9,0,1.6,0.3,2.2,0.6l-0.3,0.9c-0.5-0.3-1.2-0.5-1.9-0.5    c-0.7,0-1.1,0.3-1.1,0.8c0,0.4,0.3,0.7,1.2,0.9c1.6,0.4,2.4,1,2.4,2.2C-48,76.5-49.3,77.1-50.6,77.1z"
         id="path20" /><path
         class="st1"
         d="M-42,77v-6.5h4.6v1h-3.2V73h2.6v1h-2.6V76h3.2v1L-42,77L-42,77z"
         id="path22" /><path
         class="st1"
         d="M-27.8,77.2c-2.2,0-3.9-1.4-3.9-3.4c0-2,1.7-3.4,3.9-3.4s3.8,1.4,3.8,3.4C-24,75.7-25.7,77.2-27.8,77.2z     M-27.8,71.4c-1.4,0-2.4,1-2.4,2.4s0.9,2.4,2.4,2.4c1.4,0,2.3-1,2.3-2.4S-26.4,71.4-27.8,71.4z"
         id="path24" /><polygon
         class="st1"
         points="-26.6,74.5 -28.4,74.5 -24.9,77 -23,77   "
         id="polygon26" /><path
         class="st1"
         d="M-14.7,77.2c-1.9,0-3.3-1-3.3-3.2v-3.5h1.5V74c0,1.4,0.7,2.1,1.8,2.1c1.2,0,1.8-0.7,1.8-2.1v-3.5h1.4V74    C-11.4,76.2-12.8,77.2-14.7,77.2z"
         id="path28" /><path
         class="st1"
         d="M-5,77v-6.5h4.6v1h-3.2V73H-1v1h-2.6V76h3.2v1L-5,77L-5,77z"
         id="path30" /><path
         class="st1"
         d="M10.8,77l-3.7-4.3V77H5.8v-6.5h1l3.7,4.3v-4.3h1.3V77H10.8z"
         id="path32" /><path
         class="st1"
         d="M21.7,77.1c-2.1,0-3.8-1.3-3.8-3.4c0-2.1,1.8-3.4,3.8-3.4c0.9,0,1.9,0.3,2.5,0.7v1.2    c-0.6-0.5-1.4-0.8-2.3-0.8c-1.4,0-2.4,0.8-2.4,2.3c0,1.4,1.1,2.3,2.4,2.3c1,0,1.8-0.3,2.3-0.8v1.2C23.6,76.9,22.7,77.1,21.7,77.1z    "
         id="path34" /><path
         class="st1"
         d="M30.5,77v-6.5h1.4V77H30.5z"
         id="path36" /><path
         class="st1"
         d="M43.3,77l-3.7-4.3V77h-1.3v-6.5h1l3.7,4.3v-4.3h1.3V77H43.3z"
         id="path38" /><path
         class="st1"
         d="M54.2,77.2c-2.1,0-3.8-1.3-3.8-3.4c0-2.1,1.8-3.4,3.9-3.4c0.9,0,1.9,0.3,2.5,0.7v1.2    c-0.6-0.5-1.4-0.8-2.4-0.8c-1.5,0-2.5,0.9-2.5,2.4c0,1.5,1,2.4,2.4,2.4c0.5,0,1-0.1,1.4-0.3v-1.3h-1.3v-1h2.7v2.9    C56.8,76.7,55.6,77.2,54.2,77.2z"
         id="path40" /></g><g
       id="g46"><path
         class="st2"
         d="M-67.8,68.3c-0.6,0-1.2-0.3-1.5-0.9c-0.5-0.8-0.2-1.9,0.6-2.3L-56,58c0.2-0.1,0.2-0.3,0.2-0.4    c0-0.1,0-0.3-0.3-0.4l-22.3-12.9c-0.8-0.5-1.1-1.5-0.6-2.3s1.5-1.1,2.3-0.6l22.3,12.9c1.2,0.7,1.9,1.9,1.9,3.3    c0,1.4-0.7,2.7-1.9,3.3L-67.1,68C-67.3,68.2-67.6,68.3-67.8,68.3z"
         id="path44" /></g><g
       id="g50"><path
         class="st3"
         d="M-76.7,63.2c-0.3,0-0.6-0.1-0.8-0.2l-6.5-3.7c-1.2-0.7-1.9-1.9-1.9-3.3c0-1.4,0.7-2.7,1.9-3.3l12.5-7.3    c0.8-0.5,1.9-0.2,2.3,0.6c0.5,0.8,0.2,1.9-0.6,2.3l-12.5,7.3c-0.2,0.1-0.3,0.3-0.3,0.4s0,0.3,0.3,0.4l6.5,3.7    c0.8,0.5,1.1,1.5,0.6,2.3C-75.5,62.9-76.1,63.2-76.7,63.2z"
         id="path48" /></g><g
       id="g54"><path
         class="st1"
         d="M-68.9,78.5c-0.3,0-0.6-0.1-0.8-0.2l-13.8-8c-1.2-0.7-1.9-1.9-1.9-3.3c0-1.4,0.7-2.7,1.9-3.3l27.6-16    c0.2-0.1,0.3-0.3,0.3-0.4c0-0.1,0-0.3-0.3-0.4l-13.8-8c-0.8-0.5-1.1-1.5-0.6-2.3c0.5-0.8,1.5-1.1,2.3-0.6l13.8,8    c1.2,0.7,1.9,1.9,1.9,3.3c0,1.4-0.7,2.7-1.9,3.3l-27.6,16c-0.2,0.1-0.3,0.3-0.3,0.4c0,0.1,0,0.3,0.3,0.4l13.8,8    c0.8,0.5,1.1,1.5,0.6,2.3C-67.8,78.2-68.3,78.5-68.9,78.5z"
         id="path52" /></g><g
       id="g58"><path
         class="st2"
         d="M-55.1,57.4c-0.3,0-0.6-0.1-0.8-0.2l-12.6-7.3c-0.8-0.5-1.1-1.5-0.6-2.3c0.5-0.8,1.5-1.1,2.3-0.6l12.6,7.3    c0.8,0.5,1.1,1.5,0.6,2.3C-54,57.1-54.5,57.4-55.1,57.4z"
         id="path56" /></g></g></svg>