<svg xmlns="http://www.w3.org/2000/svg" viewBox="0 0 113.39 113.39"><defs><style>.cls-1{fill:#242f62;}.cls-2{fill:#e8af3e;}.cls-3{fill:#d2091e;}.cls-4{fill:#008c49;}.cls-5{fill:#fff;}.cls-6{fill:#f9c5af;}.cls-7{fill:#008bd2;}</style></defs><title>Semmelweis_logo_Latin_COLOR_SVG</title><g id="Color"><path class="cls-1" d="M52,83.85v3.78a1.43,1.43,0,0,1-.29,0,1.31,1.31,0,0,1-.27,0v-3l-.65.32a.76.76,0,0,1-.24-.47l1.1-.58a.5.5,0,0,1,.18,0A.47.47,0,0,1,52,83.85Z"/><path class="cls-1" d="M55.79,84.09a1.25,1.25,0,0,1-.13.58l-1.95,3.68a.8.8,0,0,1-.47-.27l1.94-3.62H52.92a1.41,1.41,0,0,1,0-.28,1.33,1.33,0,0,1,0-.28h2.85A.53.53,0,0,1,55.79,84.09Z"/><path class="cls-1" d="M59.15,86.33a1.37,1.37,0,0,1-1.49,1.4c-.9,0-1.49-.61-1.49-1.69a3.2,3.2,0,0,1,2.5-3,.49.49,0,0,1,.22.45,2.9,2.9,0,0,0-2,1.76,1.51,1.51,0,0,1,.91-.31A1.29,1.29,0,0,1,59.15,86.33Zm-.54,0a.84.84,0,0,0-.93-.88,1.34,1.34,0,0,0-.94.36,2.26,2.26,0,0,0,0,.26c0,.74.43,1.16,1,1.16A.84.84,0,0,0,58.61,86.33Z"/><path class="cls-1" d="M62.61,85.61a2.28,2.28,0,0,1-2.46,2.56.64.64,0,0,1-.06-.28,1.37,1.37,0,0,1,0-.19c.9-.06,1.7-.25,1.9-1.47a1.88,1.88,0,0,1-1,.26,1.26,1.26,0,0,1-1.33-1.32,1.33,1.33,0,0,1,1.43-1.37C62.07,83.8,62.61,84.52,62.61,85.61Zm-.56.1v-.1c0-.8-.38-1.32-.94-1.32a.82.82,0,0,0-.87.88.79.79,0,0,0,.86.82A1.7,1.7,0,0,0,62.05,85.71Z"/><path class="cls-1" d="M81.94,67.51a9.27,9.27,0,0,0,4.77-1.44,9.1,9.1,0,0,0,3.65-4,.24.24,0,0,0,0-.23.25.25,0,0,0-.19-.12,9.05,9.05,0,0,0-5.22,1.43A9.73,9.73,0,0,0,82,65.87a25.14,25.14,0,0,0,.35-5.32,9.26,9.26,0,0,0,4.49-2.75A9.08,9.08,0,0,0,89.27,53a.24.24,0,0,0-.08-.21.23.23,0,0,0-.22-.06,9.06,9.06,0,0,0-4.64,2.78,9.59,9.59,0,0,0-2.09,3.43,25.84,25.84,0,0,0-.88-4.54,9.73,9.73,0,0,0-3.83-9.63.27.27,0,0,0-.23,0,.23.23,0,0,0-.15.17,9.71,9.71,0,0,0,3.72,9.59,24.34,24.34,0,0,1,1,5.61,9.47,9.47,0,0,0-2.57-3.56,9.08,9.08,0,0,0-4.9-2.3.27.27,0,0,0-.22.08.25.25,0,0,0-.05.22A9,9,0,0,0,77,59.09a9.14,9.14,0,0,0,4.87,2.3,25,25,0,0,1-.37,4.47,26.85,26.85,0,0,1-.91,3.61,9.56,9.56,0,0,0-1-4.36,9,9,0,0,0-3.66-4,.27.27,0,0,0-.23,0,.3.3,0,0,0-.14.19,9.75,9.75,0,0,0,4.61,9.32,24,24,0,0,1-1.37,2.95h0s0,0,0,.06a24.55,24.55,0,0,1-2.73,4A9.37,9.37,0,0,0,76.48,73a9,9,0,0,0-2.22-4.93A.27.27,0,0,0,74,68a.25.25,0,0,0-.19.14,9.73,9.73,0,0,0,1.46,10.29h0a25.19,25.19,0,0,1-6.94,5.34l-.11,0a9.32,9.32,0,0,0,2.31-4.22,9,9,0,0,0-.18-5.41.23.23,0,0,0-.17-.16.25.25,0,0,0-.22.06,9.68,9.68,0,0,0-2.57,10.07.1.1,0,0,0,0,0,25.67,25.67,0,0,1-2.66,1.1.24.24,0,0,0-.15.32.24.24,0,0,0,.23.16H65a25.85,25.85,0,0,0,3.86-1.67l0,0a1.63,1.63,0,0,0,.19-.09,9.12,9.12,0,0,0,4.59,2.83,10.28,10.28,0,0,0,2.71.37,7.92,7.92,0,0,0,2.7-.44.24.24,0,0,0,.11-.39,9,9,0,0,0-4.61-2.84,9.4,9.4,0,0,0-4.32-.22,25.43,25.43,0,0,0,4.44-3.48,9.7,9.7,0,0,0,10.33,0,.28.28,0,0,0,.1-.21.25.25,0,0,0-.1-.2,9.13,9.13,0,0,0-5.2-1.51,9.73,9.73,0,0,0-4.06.85A25.88,25.88,0,0,0,79.1,74a8.07,8.07,0,0,0,2.49.39,10.2,10.2,0,0,0,2.7-.37,9.12,9.12,0,0,0,4.61-2.84.25.25,0,0,0-.11-.4,9,9,0,0,0-5.41-.06,9.54,9.54,0,0,0-3.5,1.76,25,25,0,0,0,1.78-5Zm3.25-3.93a8.79,8.79,0,0,1,4.51-1.37h0A9.26,9.26,0,0,1,82.31,67l3.33-2a.19.19,0,0,0,.07-.27.2.2,0,0,0-.28-.07l-3.3,2A8.9,8.9,0,0,1,85.19,63.58Zm-.5-7.77a8.85,8.85,0,0,1,4-2.55,8.74,8.74,0,0,1-2.24,4.2,8.9,8.9,0,0,1-3.62,2.41L85.52,57a.2.2,0,1,0-.29-.27l-2.66,2.85A9.08,9.08,0,0,1,84.69,55.81ZM81,53.25A26.86,26.86,0,0,0,79.66,50a.25.25,0,0,0-.45.23,25.79,25.79,0,0,1,1.41,3.41,9.28,9.28,0,0,1-3.06-8.28,8.85,8.85,0,0,1,2.82,3.84A9,9,0,0,1,81,53.25Zm-2.78,4.9,2.9,2.58a8.92,8.92,0,0,1-3.8-2,8.82,8.82,0,0,1-2.65-4,9.27,9.27,0,0,1,6.76,5.71l-3-2.62a.2.2,0,0,0-.28,0A.19.19,0,0,0,78.23,58.15ZM78,66.21l1.74,3.52A8.89,8.89,0,0,1,77,66.4a8.74,8.74,0,0,1-1-4.66,8.72,8.72,0,0,1,3.13,3.59,8.86,8.86,0,0,1,1,4.22L78.34,66a.21.21,0,0,0-.27-.1A.2.2,0,0,0,78,66.21ZM67.75,78.87a8.69,8.69,0,0,1,2.31-4.16,8.78,8.78,0,0,1,0,4.75,9,9,0,0,1-2,3.84l1-3.81a.21.21,0,0,0-.15-.24.2.2,0,0,0-.24.14l-1,3.81A8.84,8.84,0,0,1,67.75,78.87ZM74.43,84a8.75,8.75,0,0,1,4.11,2.39,8.77,8.77,0,0,1-4.76-.06A9,9,0,0,1,70,84.19l3.81,1.07h.06a.2.2,0,0,0,0-.39l-3.74-1.06A9,9,0,0,1,74.43,84Zm5.38-5.64a8.81,8.81,0,0,1,4.6,1.21,9.26,9.26,0,0,1-8.82.2h3.93a.2.2,0,0,0,0-.4H75.6A9,9,0,0,1,79.81,78.34Zm-4.23-1L75,73.5a.2.2,0,1,0-.4.06l.55,3.89a8.81,8.81,0,0,1-1.59-4,8.67,8.67,0,0,1,.55-4.72A8.79,8.79,0,0,1,76,73.07,9,9,0,0,1,75.58,77.39Zm7.93-6.16a8.77,8.77,0,0,1,4.76-.06,8.72,8.72,0,0,1-4.11,2.39,8.94,8.94,0,0,1-4.34.15l3.79-1.06a.21.21,0,0,0,.14-.25.21.21,0,0,0-.25-.14l-3.78,1.06A8.91,8.91,0,0,1,83.51,71.23Z"/><path class="cls-1" d="M48.67,85.29q-1.05-.36-2.07-.81l-.12-.06L46,84.2l1-1.72,0,0,.64-1.09a1.23,1.23,0,0,0-1.07-1.87l.42-.71a1.24,1.24,0,0,0-.44-1.7,1.22,1.22,0,0,0-1.3,0L44.8,75a1.29,1.29,0,0,0-.57-.76,1.2,1.2,0,0,0-.94-.13,1.18,1.18,0,0,0-.76.56,1.24,1.24,0,0,0-.14.94l.52,2.06A1.24,1.24,0,0,0,42.2,80l.7.42a1.15,1.15,0,0,0-.48.45,1.26,1.26,0,0,0-.17.76l0,.3-.17,0a24.25,24.25,0,0,1-3.94-3.49l0,0,.29-.23.39-.31.78-.62h0l.76-.61a1.53,1.53,0,0,0,.69-.91,1.27,1.27,0,0,0-.34-1.17,1.19,1.19,0,0,0-.41-.26l.43-.35a1.85,1.85,0,0,0,.45-.44,1.41,1.41,0,0,0,.2-.66,1.28,1.28,0,0,0-.66-1.14,1.29,1.29,0,0,0-.84-.12L40.14,70l0-.52a1.14,1.14,0,0,0-.11-.63,1.25,1.25,0,0,0-2.39.35l-.06.52-.17,1.62a1.22,1.22,0,0,0-1.73.89,1.28,1.28,0,0,0,.06.67,1.67,1.67,0,0,0,.34.52l.37.46a1.25,1.25,0,0,0-.7.34,1.22,1.22,0,0,0-.35.65h0a24.82,24.82,0,0,1-2.11-4.22L35.18,70l0,0,1.19-.41a1.24,1.24,0,0,0,.41-2.12l.77-.26a1.23,1.23,0,0,0,.72-.62,1.26,1.26,0,0,0,.07-.95,1.23,1.23,0,0,0-1-.83l.95-1.9a1.24,1.24,0,0,0-2.23-1.1l-.94,1.89a1.23,1.23,0,0,0-2,.33,1.21,1.21,0,0,0-.06.95l.26.77a1.18,1.18,0,0,0-.67,0,1.23,1.23,0,0,0-.63.49l-.09-.4a25.25,25.25,0,0,1-.37-4.41l1.75.1h0l1.26.08h.08A1.23,1.23,0,0,0,36,60.46a1.13,1.13,0,0,0-.14-.65l.82,0A1.26,1.26,0,0,0,38,58.69a1.21,1.21,0,0,0-.62-1.14l1.59-1.41a1.26,1.26,0,0,0,.1-1.76,1.25,1.25,0,0,0-1.75-.1L35.7,55.69a1.21,1.21,0,0,0-1.06-.75,1.26,1.26,0,0,0-.89.31,1.25,1.25,0,0,0-.42.86l0,.82a1.14,1.14,0,0,0-.62-.22,1.29,1.29,0,0,0-.6.12,23.66,23.66,0,0,1,.55-2.32l1.7-.74,0,0,1.16-.5a1.24,1.24,0,0,0,.65-1.63,1.28,1.28,0,0,0-.42-.52l.75-.32a1.26,1.26,0,0,0,.66-.68,1.28,1.28,0,0,0,0-1,1.24,1.24,0,0,0-1.07-.73l.78-2a1.24,1.24,0,1,0-2.31-.91l-.78,2a1.22,1.22,0,0,0-1.28-.2,1.27,1.27,0,0,0-.67.68,1.25,1.25,0,0,0,0,1l.33.76a1.23,1.23,0,0,0-1.31,1.72l.49,1.13a.24.24,0,0,0,0,.08l.77,1.77c-.17.57-.32,1.13-.44,1.7a1.22,1.22,0,0,0-.73-.37,1.19,1.19,0,0,0-.65.1L30.4,55a1.24,1.24,0,0,0-1.09-1.38,1.21,1.21,0,0,0-1.17.55L26.82,52.5A1.22,1.22,0,0,0,26,52a1.2,1.2,0,0,0-.91.26A1.24,1.24,0,0,0,24.87,54l1.32,1.66a1.24,1.24,0,0,0,.27,2.4l.82.09a1.27,1.27,0,0,0-.26.62,1.21,1.21,0,0,0,.26.91,1.19,1.19,0,0,0,.83.46l1.22.15.08,0,1.73.21a25.75,25.75,0,0,0,.06,2.91l-.11-.11a1.28,1.28,0,0,0-1.15-.31,1.21,1.21,0,0,0-.57.33l-.2-.8a1.24,1.24,0,0,0-.56-.76,1.19,1.19,0,0,0-.94-.15,1.22,1.22,0,0,0-.91.93L25,61.49a1.25,1.25,0,0,0-1.71.42,1.24,1.24,0,0,0-.14.94,1.21,1.21,0,0,0,.56.77l1.81,1.1A1.21,1.21,0,0,0,25.06,66a1.24,1.24,0,0,0,1.5.91l.8-.19a1.22,1.22,0,0,0,.53,1.43,1.25,1.25,0,0,0,.65.18l.29,0L30,68h.08l1.73-.42a24.85,24.85,0,0,0,.84,2.74l-.15-.06a1.25,1.25,0,0,0-1.6.52l-.4-.71a1.23,1.23,0,0,0-.75-.59,1.19,1.19,0,0,0-.94.12,1.21,1.21,0,0,0-.62,1.14l-2-.57a1.24,1.24,0,0,0-1.42,1.8,1.26,1.26,0,0,0,.75.59l2,.57a1.22,1.22,0,0,0-.05,1.3,1.23,1.23,0,0,0,.74.58,1.26,1.26,0,0,0,.95-.11l.71-.41a1.23,1.23,0,0,0,.16.65,1.25,1.25,0,0,0,1.08.63,1.21,1.21,0,0,0,.61-.16L32.82,75l.07,0,1.53-.86a25.43,25.43,0,0,0,1.75,2.7l-.07,0a1.24,1.24,0,0,0-1.29.3,1.19,1.19,0,0,0-.32.58l-.58-.58a1.25,1.25,0,0,0-1.76,0,1.21,1.21,0,0,0-.28,1.27H29.74a1.25,1.25,0,0,0,0,2.49h2.12a1.23,1.23,0,0,0,.3,1.26,1.22,1.22,0,0,0,.88.37h0a1.23,1.23,0,0,0,.88-.37l.58-.58a1.19,1.19,0,0,0,.32.58,1.25,1.25,0,0,0,.88.36h0a1.27,1.27,0,0,0,.88-.36l.87-.88.06-.05,1.32-1.32a24.17,24.17,0,0,0,2.28,2l-.15,0a1.23,1.23,0,0,0-1.15.63,1.14,1.14,0,0,0-.16.65l-.72-.41a1.23,1.23,0,0,0-.94-.11,1.26,1.26,0,0,0-.75.59,1.24,1.24,0,0,0,.06,1.3l-2,.57a1.24,1.24,0,1,0,.67,2.39l2-.57A1.22,1.22,0,0,0,38.59,88a1.32,1.32,0,0,0,.61.16,1.4,1.4,0,0,0,.34,0,1.24,1.24,0,0,0,.74-.59l.4-.71a1.23,1.23,0,0,0,1.42.58,1.2,1.2,0,0,0,.74-.58l.61-1.08a.18.18,0,0,0,0-.07L44.43,84q.78.42,1.59.78c.25.12.5.22.75.33l.34.15v0c.46.19.92.39,1.39.55h.08a.24.24,0,0,0,.24-.16A.24.24,0,0,0,48.67,85.29ZM31.85,52.49a.19.19,0,0,0,0-.08l-.52-1.21a.73.73,0,0,1,1.15-.86.24.24,0,0,0,.31,0,.26.26,0,0,0,.08-.3l0,0a.31.31,0,0,0,0-.08l-.52-1.2a.75.75,0,0,1,0-.57.72.72,0,0,1,.39-.41.74.74,0,0,1,.94.34.27.27,0,0,0,.24.13.24.24,0,0,0,.22-.15L35,45.7a.74.74,0,1,1,1.37.55l-.94,2.37a.25.25,0,0,0,.06.26.25.25,0,0,0,.26.07.73.73,0,0,1,.92.39.75.75,0,0,1,0,.57.76.76,0,0,1-.4.41l-1.2.52,0,0-.09,0a.25.25,0,0,0-.15.27.26.26,0,0,0,.24.21.72.72,0,0,1,.65.44.74.74,0,0,1-.39,1l-1.2.52,0,0-1.28.56a24,24,0,0,1,1.49-3.66.26.26,0,0,0-.11-.34.26.26,0,0,0-.34.11,26.33,26.33,0,0,0-1.48,3.63Zm.08,5,.32-.23a.81.81,0,0,1,.38-.07.7.7,0,0,1,.62.45.26.26,0,0,0,.28.14.24.24,0,0,0,.2-.23v0a.19.19,0,0,0,0-.08l.08-1.31a.76.76,0,0,1,.25-.52.74.74,0,0,1,.54-.18.73.73,0,0,1,.68.73.25.25,0,0,0,.15.22.27.27,0,0,0,.27,0l1.9-1.7a.71.71,0,0,1,.54-.18.73.73,0,0,1,.69.78.75.75,0,0,1-.24.51l-1.91,1.7a.26.26,0,0,0-.08.26.28.28,0,0,0,.21.18.72.72,0,0,1,.64.76.75.75,0,0,1-.78.7l-1.31-.08h-.14a.24.24,0,0,0-.25.18.24.24,0,0,0,.11.29.73.73,0,0,1-.4,1.38l-1.3-.08h0L31.93,61l3.12-2.78a.19.19,0,0,0,0-.28.19.19,0,0,0-.28,0l-3.15,2.8A24.09,24.09,0,0,1,31.93,57.51Zm-.77,2.25-2.58-3.29a.22.22,0,0,0-.29,0,.2.2,0,0,0,0,.28l2.6,3.3-1.31-.15s-.05,0-.08,0l-1.3-.15A.74.74,0,0,1,28,58.26a.25.25,0,0,0,.17-.26.28.28,0,0,0-.22-.22h0l-.08,0-1.31-.15a.74.74,0,0,1-.65-.83.73.73,0,0,1,.74-.64h0a.22.22,0,0,0,.23-.13.26.26,0,0,0,0-.27l-1.57-2a.73.73,0,0,1,.12-1,.71.71,0,0,1,.55-.16.79.79,0,0,1,.49.28l1.58,2a.25.25,0,0,0,.26.08.24.24,0,0,0,.18-.19.74.74,0,0,1,.81-.6.76.76,0,0,1,.65.83l-.16,1.3v.14a.25.25,0,0,0,.46.16.77.77,0,0,1,.7-.34.73.73,0,0,1,.64.67A25.68,25.68,0,0,0,31.16,59.76ZM27.85,65l3.56,2.17-1.34.32H30l-1.28.31a.7.7,0,0,1-.56-.09.68.68,0,0,1-.33-.46.74.74,0,0,1,.24-.73.23.23,0,0,0,.06-.3.25.25,0,0,0-.28-.13h-.12l-1.28.31a.73.73,0,0,1-.89-.55A.74.74,0,0,1,26,65a.25.25,0,0,0,.17-.21.26.26,0,0,0-.12-.24l-2.17-1.32a.76.76,0,0,1-.34-.46.78.78,0,0,1,.09-.56.75.75,0,0,1,1-.25l2.18,1.33a.24.24,0,0,0,.27,0,.25.25,0,0,0,.11-.24.74.74,0,0,1,1.1-.76.78.78,0,0,1,.34.46L29,64a.09.09,0,0,0,0,0l0,.09a.25.25,0,0,0,.25.19.24.24,0,0,0,.24-.19.73.73,0,0,1,.54-.57.75.75,0,0,1,.68.17l.53.57c.07.56.13,1.11.23,1.67.05.29.13.58.19.87l-3.63-2.21a.2.2,0,0,0-.28.07A.21.21,0,0,0,27.85,65Zm4.42,2.2.14-.46a.76.76,0,0,1,.46-.45.73.73,0,0,1,.75.18.26.26,0,0,0,.31,0,.28.28,0,0,0,.11-.3l0,0A.28.28,0,0,0,34,66l-.42-1.24a.75.75,0,0,1,0-.57.73.73,0,0,1,1.33,0,.27.27,0,0,0,.23.15.3.3,0,0,0,.23-.14L36.55,62a.74.74,0,0,1,1-.34.75.75,0,0,1,.34,1L36.74,65a.26.26,0,0,0,.29.36.72.72,0,0,1,.88.47.75.75,0,0,1,0,.57.72.72,0,0,1-.43.37l-1.23.42h-.05l-.09,0a.24.24,0,0,0-.17.26.25.25,0,0,0,.22.22.74.74,0,0,1,.14,1.43L35,69.52l0,0L33.64,70l1.87-3.78a.2.2,0,0,0-.09-.27.22.22,0,0,0-.27.09l-2,4.07A24.42,24.42,0,0,1,32.27,67.15Zm-2.38,5.5,4,1.13-1.2.67-.08,0-1.15.65a.75.75,0,0,1-1-.29.74.74,0,0,1,0-.77.24.24,0,0,0,0-.31.26.26,0,0,0-.31,0l0,0-.08,0-1.15.65a.73.73,0,0,1-.56.07.75.75,0,0,1-.45-.35.74.74,0,0,1,.24-1,.27.27,0,0,0,.11-.25.26.26,0,0,0-.18-.2L25.64,72a.79.79,0,0,1-.45-.35.75.75,0,0,1-.07-.57.7.7,0,0,1,.35-.44A.75.75,0,0,1,26,70.6l2.45.68a.25.25,0,0,0,.3-.34.73.73,0,0,1,.29-1,.81.81,0,0,1,.57-.07.74.74,0,0,1,.44.35l.65,1.14s0,0,0,0l0,.09a.24.24,0,0,0,.29.11.25.25,0,0,0,.18-.25.71.71,0,0,1,.37-.69.74.74,0,0,1,.68,0l.59.24a24.31,24.31,0,0,0,1.13,2.49L30,72.26a.19.19,0,0,0-.24.14A.2.2,0,0,0,29.89,72.65Zm6.09,3a.65.65,0,0,0,0-.21,2.74,2.74,0,0,1,0-.51.7.7,0,0,1,.2-.38.75.75,0,0,1,.82-.14.26.26,0,0,0,.31-.39L37.22,74s0,0,0,0l-.68-.85a1.43,1.43,0,0,1-.26-.38.77.77,0,0,1,0-.4.72.72,0,0,1,1.24-.35.26.26,0,0,0,.45-.15l.23-2,.06-.51a.64.64,0,0,1,.14-.34.72.72,0,0,1,1.23.14.74.74,0,0,1,.06.36l0,.51-.23,2a.28.28,0,0,0,.43.26.71.71,0,0,1,1.11.6.66.66,0,0,1-.11.36,1.25,1.25,0,0,1-.33.31l-.84.68h0l-.1.08a.27.27,0,0,0-.1.28.28.28,0,0,0,.33.21.7.7,0,0,1,.87.83c0,.26-.21.39-.5.62l-.77.62h0l-.76.61-.33.27.45-4.19a.2.2,0,1,0-.4,0L37.82,78A23.46,23.46,0,0,1,36,75.65Zm-2,4.1h4.22l-1,1a.18.18,0,0,0-.07,0l-.93.93a.73.73,0,0,1-.52.22.84.84,0,0,1-.53-.21A.75.75,0,0,1,35,81a.25.25,0,0,0-.41-.25l0,0a.18.18,0,0,0-.07,0l-.93.93a.73.73,0,0,1-.52.22h0a.75.75,0,0,1-.53-.22.74.74,0,0,1,0-1,.25.25,0,0,0,0-.26.25.25,0,0,0-.23-.15H29.74a.74.74,0,0,1-.74-.74.75.75,0,0,1,.74-.75h2.55a.25.25,0,0,0,.23-.15.25.25,0,0,0,0-.27.74.74,0,0,1,1.08-1l.92.92,0,0,.07.07a.25.25,0,0,0,.41-.26.73.73,0,0,1,.17-.76.75.75,0,0,1,.77-.18l.77.27c.52.64,1.06,1.26,1.64,1.86H34a.2.2,0,1,0,0,.4Zm8.88,1.39a.73.73,0,0,1,.63-.36h.07a.25.25,0,0,0,.24-.18.24.24,0,0,0-.11-.29l0,0a.18.18,0,0,0-.07,0l-1.13-.67a.75.75,0,0,1-.26-1,.74.74,0,0,1,1-.28.24.24,0,0,0,.27,0A.22.22,0,0,0,43.5,78l-.63-2.47a.74.74,0,0,1,1.44-.37l.63,2.48a.25.25,0,0,0,.45.08.74.74,0,0,1,1-.22.76.76,0,0,1,.26,1L46,79.64s0,0,0,0l0,.09a.26.26,0,0,0,0,.31.24.24,0,0,0,.31,0,.76.76,0,0,1,.78,0,.7.7,0,0,1,.34.45.73.73,0,0,1-.08.56l-.66,1.13a.08.08,0,0,0,0,0l-.73,1.21-1-4.08a.2.2,0,0,0-.38.1L45.58,84h0c-.34-.16-.68-.32-1-.5-.58-.32-1.16-.65-1.71-1l-.12-.86A.7.7,0,0,1,42.85,81.14Zm-3.19,4.13h.06l4.05-1.14-.67,1.2-.05.06-.64,1.15a.75.75,0,0,1-.45.35.69.69,0,0,1-.56-.07.72.72,0,0,1-.37-.67.24.24,0,0,0-.18-.25.24.24,0,0,0-.29.11l0,0,0,.06-.64,1.15a.75.75,0,0,1-.45.35.73.73,0,0,1-.56-.07.71.71,0,0,1-.3-1,.25.25,0,0,0,0-.27.27.27,0,0,0-.26-.08l-2.45.69a.73.73,0,0,1-.91-.51.75.75,0,0,1,.51-.92l2.46-.69a.25.25,0,0,0,.18-.2.26.26,0,0,0-.11-.25.73.73,0,0,1-.24-1,.79.79,0,0,1,.45-.35.73.73,0,0,1,.56.07l1.14.64,0,0,.09,0a.25.25,0,0,0,.33-.36.72.72,0,0,1,0-.78.75.75,0,0,1,.68-.38l1,.11c.63.45,1.28.88,2,1.27l-4.27,1.21a.19.19,0,0,0-.14.24A.21.21,0,0,0,39.66,85.27Z"/><path class="cls-2" d="M59.05,66.33a.25.25,0,0,0,.2.1h1.83a.26.26,0,0,0,.24-.17l1-2.73h1.57l-2,5.72H60.35a9.15,9.15,0,0,0-1.79-1.1l-.12,0-1.83.13-.41-.07,1.59-4.66h2.13L59,66.1A.27.27,0,0,0,59.05,66.33Z"/><path class="cls-2" d="M62.65,60.93l-1.75,5H59.6l1.88-5.4a.61.61,0,0,1,.58-.42.62.62,0,0,1,.59.82Z"/><path class="cls-2" d="M60.11,26.83l7,3.31,2.06,4.46-1.52-1.51c-1.22-2.44-4-4.36-7.5-5.17Z"/><path class="cls-3" d="M60.11,28.43c3.23.78,5.82,2.54,7,4.77l-2.2,2.21-2.34-2.34a.24.24,0,0,0-.36,0l-2.09,2.1Z"/><path class="cls-2" d="M46.35,30.14l7-3.31v1.09c-3.49.81-6.27,2.72-7.5,5.16L44.3,34.6Z"/><path class="cls-3" d="M53.32,28.43v6.74l-2.1-2.1a.24.24,0,0,0-.35,0l-2.34,2.34-2.2-2.2C47.5,31,50.08,29.21,53.32,28.43Z"/><path class="cls-2" d="M69.69,41.73H43.74V35.87L46,33.6l2.31,2.3a.27.27,0,0,0,.44,0L51,33.6,53.39,36a.29.29,0,0,0,.18.07l.09,0a.25.25,0,0,0,.16-.23V26.69h5.79v9.08a.25.25,0,0,0,.15.23l.1,0A.28.28,0,0,0,60,36l2.35-2.35,2.3,2.3a.28.28,0,0,0,.45,0l2.28-2.28,2.28,2.27Z"/><path class="cls-3" d="M43.74,43.63H56.46V56.84A3.6,3.6,0,0,0,53.32,55a3.68,3.68,0,0,0-1.62.39,4.19,4.19,0,0,0-.49-.2V52l2.82.38V49.8l-2.82.38V48.51l1.81.25v-2.3l-1.78.24.25-2h-2.8l.25,2-1.78-.24v2.3L49,48.51v1.67l-2.82-.38v2.56L49,52v3.2a3.72,3.72,0,0,0-.5.2A3.65,3.65,0,0,0,46.86,55a3.6,3.6,0,0,0-3.12,1.82Z"/><path class="cls-4" d="M49.62,55.53h.94a3.12,3.12,0,0,1,2.63,2.83H47A3.12,3.12,0,0,1,49.62,55.53Z"/><path class="cls-4" d="M46.49,58.36H43.76a3.12,3.12,0,0,1,3.1-2.87,3.3,3.3,0,0,1,1.1.2A3.64,3.64,0,0,0,46.49,58.36Z"/><polygon class="cls-5" points="46.66 51.79 46.66 50.37 49.48 50.75 49.48 47.94 47.66 48.19 47.66 47.03 49.51 47.28 49.26 45.2 50.92 45.2 50.67 47.28 52.52 47.03 52.52 48.19 50.71 47.94 50.71 50.75 53.53 50.37 53.53 51.79 50.71 51.41 50.71 55.03 49.48 55.03 49.48 51.41 46.66 51.79"/><path class="cls-4" d="M52.22,55.7a3.09,3.09,0,0,1,4.2,2.66H53.69A3.6,3.6,0,0,0,52.22,55.7Z"/><rect class="cls-5" x="56.96" y="55.76" width="12.72" height="2.6"/><rect class="cls-2" x="56.96" y="52.72" width="12.72" height="2.64"/><rect class="cls-5" x="56.96" y="49.68" width="12.72" height="2.64"/><rect class="cls-2" x="56.96" y="46.64" width="12.72" height="2.64"/><rect class="cls-5" x="56.96" y="43.63" width="12.72" height="2.61"/><path class="cls-5" d="M60.27,76.82v-.31a.25.25,0,0,0-.25-.25.26.26,0,0,0-.25.25v.63l-.49.32V76.28L63,72l.46.12-.73.83a.25.25,0,0,0,0,.36.23.23,0,0,0,.16.06.25.25,0,0,0,.19-.09l.88-1,2.32.63Z"/><path class="cls-5" d="M48.11,61.63h2l1.1,6.59a.19.19,0,0,0,.19.17h0a.2.2,0,0,0,.2-.17l1.18-6.59h1.88l-2.17,6.5a.2.2,0,0,0,.13.25h.06a.2.2,0,0,0,.19-.14l2.22-6.62h.85l-3.26,9.52H50.18l-3.25-9.52h.76l2.21,6.62a.2.2,0,0,0,.19.14h.07a.2.2,0,0,0,.12-.25Z"/><polygon class="cls-5" points="50.48 61.63 52.35 61.63 51.38 67.02 50.48 61.63"/><path class="cls-2" d="M62.08,69.75a.26.26,0,0,0,.24-.17l2.12-6.22a.25.25,0,0,0,0-.22A.26.26,0,0,0,64.2,63H62.46l.48-1.4h3.58L63.14,71.5l-.14,0a.11.11,0,0,0-.08,0l-1.64-.86a1.64,1.64,0,0,0-.43-.86Z"/><path class="cls-2" d="M60.1,63H57.62a.25.25,0,0,0-.24.17l-1.67,4.9L55,68a.24.24,0,0,0-.29.2A1.28,1.28,0,0,0,55,69.26a3.07,3.07,0,0,0,2,.82l.58.85-1,.22H53.18l3.25-9.52h4.15Z"/><path class="cls-6" d="M56.66,71.64l1.39-.3a.26.26,0,0,0,.18-.16.24.24,0,0,0,0-.23l-.85-1.25a.24.24,0,0,0-.2-.11A2.76,2.76,0,0,1,55.38,69a.76.76,0,0,1-.16-.43l1.37.24,1.83-.12c.71.32,2.37,1.27,2.37,2.12a.24.24,0,0,0,.14.22l1.58.84-2.23,2.55a2.61,2.61,0,0,0-2.11-.46l-.12,0a1.57,1.57,0,0,1-1,0,11.49,11.49,0,0,0-3.72-1.16c-1.52-.28-2.18-.47-2.2-1.09Z"/><path class="cls-7" d="M69.69,66.46a7.8,7.8,0,0,1-2.85,6.05l-3.22-.88L67.1,61.46a.25.25,0,0,0-.24-.33H63.11v0a1.08,1.08,0,0,0-.15-1,1.09,1.09,0,0,0-.9-.47,1.12,1.12,0,0,0-1.06.76l-.26.76H46.58a.23.23,0,0,0-.2.11.25.25,0,0,0,0,.22l3.43,10a.25.25,0,0,0,.23.17h.66c0,1.09,1.21,1.32,2.59,1.58a11.16,11.16,0,0,1,3.56,1.1,1.94,1.94,0,0,0,1.32.09h.12a2.08,2.08,0,0,1,1.7.34L58.84,76a.25.25,0,0,0-.06.16v1.6l-2.07,1.34-9.37-6.05a7.83,7.83,0,0,1-3.6-6.61v-7.6H69.69Z"/><rect class="cls-5" x="65.89" y="37.71" width="2.09" height="2.09" rx="0.23" ry="0.23"/><rect class="cls-5" x="60.86" y="37.71" width="2.09" height="2.09" rx="0.23" ry="0.23"/><path class="cls-5" d="M58,39.57a.24.24,0,0,1-.23.23H55.66a.23.23,0,0,1-.23-.23v-.73a1.13,1.13,0,0,1,1.12-1.13h.32A1.14,1.14,0,0,1,58,38.84Z"/><rect class="cls-5" x="50.49" y="37.71" width="2.09" height="2.09" rx="0.23" ry="0.23"/><rect class="cls-5" x="45.45" y="37.71" width="2.09" height="2.09" rx="0.23" ry="0.23"/><path class="cls-5" d="M57.75,35.27H55.67V31.42a1,1,0,1,1,2.08,0Z"/><path class="cls-1" d="M43.24,43.13V66.46a8.38,8.38,0,0,0,3.82,7l9.65,6.22,9.65-6.22a8.39,8.39,0,0,0,3.83-7V43.13Zm.5.5H56.46V56.84A3.6,3.6,0,0,0,53.32,55a3.65,3.65,0,0,0-1.62.39,3.72,3.72,0,0,0-.5-.2V52l2.82.38V49.8l-2.82.38V48.51l1.82.25v-2.3l-1.78.24.25-2h-2.8l.25,2-1.78-.24v2.3L49,48.51v1.67l-2.82-.38v2.56L49,52v3.2a5.21,5.21,0,0,0-.5.2,3.56,3.56,0,0,0-4.73,1.43Zm5.88,11.9h.94a3.12,3.12,0,0,1,2.63,2.83H47A3.12,3.12,0,0,1,49.62,55.53Zm-3.13,2.83H43.76A3.09,3.09,0,0,1,48,55.7,3.6,3.6,0,0,0,46.49,58.36Zm.16-6.57V50.37l2.82.38V47.94l-1.81.25V47l1.85.26-.25-2.1h1.66l-.25,2.1L52.52,47v1.16l-1.82-.25v2.81l2.82-.38v1.42l-2.82-.38V55H49.47V51.41Zm5.57,3.91a3.07,3.07,0,0,1,1.1-.21,3.12,3.12,0,0,1,3.1,2.87H53.69A3.6,3.6,0,0,0,52.22,55.7Zm8.05,21.12v-.3a.25.25,0,0,0-.5,0v.62l-.49.32V76.28L63,72l.46.12-.73.83a.25.25,0,0,0,0,.36.23.23,0,0,0,.16.06.25.25,0,0,0,.19-.09l.88-1,2.31.63ZM48.11,61.63h2l1.1,6.59a.19.19,0,0,0,.19.17h0a.2.2,0,0,0,.2-.17l1.18-6.59h1.88l-2.17,6.5a.2.2,0,0,0,.12.25h.07a.2.2,0,0,0,.19-.14l2.21-6.62h.85l-3.25,9.52H50.18l-3.25-9.52h.76l2.21,6.62a.2.2,0,0,0,.19.14h.06a.19.19,0,0,0,.13-.25Zm2.37,0h1.87l-1,5.39Zm12.63,9.94-1.83-1a1.75,1.75,0,0,0-.43-.86h1.23a.25.25,0,0,0,.23-.17l2.13-6.22a.25.25,0,0,0,0-.22.23.23,0,0,0-.2-.11H62.46l.47-1.4h3.58Zm-4.06-5.24a.25.25,0,0,0,.2.1h1.83a.26.26,0,0,0,.24-.17l1-2.73h1.57l-2,5.72H60.35a9.15,9.15,0,0,0-1.79-1.1l-.12,0-1.83.13-.41-.07,1.59-4.66h2.13L59,66.1A.27.27,0,0,0,59.05,66.33Zm3.6-5.4-1.75,5H59.6l1.88-5.4a.61.61,0,0,1,.58-.42.62.62,0,0,1,.59.82ZM60.09,63H57.61a.25.25,0,0,0-.23.17L55.7,68.1,55,68a.23.23,0,0,0-.28.2A1.28,1.28,0,0,0,55,69.26a3.07,3.07,0,0,0,2,.82l.58.85-1,.22H53.18l3.25-9.52h4.14Zm-3.43,8.61,1.39-.3a.27.27,0,0,0,.18-.15.26.26,0,0,0,0-.24l-.86-1.25a.21.21,0,0,0-.19-.11A2.74,2.74,0,0,1,55.38,69a.76.76,0,0,1-.16-.43l1.37.24,1.82-.12c.72.32,2.38,1.27,2.38,2.12a.24.24,0,0,0,.13.22l1.59.84-2.23,2.55a2.61,2.61,0,0,0-2.11-.46l-.13,0a1.54,1.54,0,0,1-1,0,11.49,11.49,0,0,0-3.72-1.16c-1.53-.28-2.18-.47-2.2-1.09Zm13-5.18a7.83,7.83,0,0,1-2.85,6.05l-3.22-.87L67.1,61.46a.25.25,0,0,0,0-.22.26.26,0,0,0-.21-.11H63.11v0a1.1,1.1,0,0,0-.15-1,1.09,1.09,0,0,0-.91-.47,1.12,1.12,0,0,0-1.05.76l-.27.76H46.58a.26.26,0,0,0-.21.11.28.28,0,0,0,0,.22l3.43,10a.25.25,0,0,0,.23.17h.66c0,1.09,1.21,1.32,2.59,1.58a11.24,11.24,0,0,1,3.56,1.1,2,2,0,0,0,1.31.1l.13,0a2.08,2.08,0,0,1,1.7.34L58.84,76a.25.25,0,0,0-.06.17v1.59l-2.07,1.34-9.38-6.05a7.85,7.85,0,0,1-3.59-6.61v-7.6H69.69Zm0-8.1H57v-2.6H69.69Zm0-3H57V52.72H69.69Zm0-3H57V49.68H69.69Zm0-3H57V46.64H69.69Zm0-3H57V43.63H69.69Z"/><path class="cls-1" d="M70.18,35.77h0a.21.21,0,0,0,0-.11l-2.67-5.81a.34.34,0,0,0-.12-.12L60,26.21l-.11,0H56.69L55.5,22.35l1.71-.53a.44.44,0,0,0,.43.09.46.46,0,0,0,.31-.58.47.47,0,0,0-.59-.31.44.44,0,0,0-.3.32l-1.71.53-.66-2.11a.47.47,0,0,0,.1-.44.47.47,0,1,0-.9.28.47.47,0,0,0,.33.31L54.87,22l-1.7.53a.47.47,0,0,0-.75.49.47.47,0,0,0,.9,0L55,22.5l1.15,3.69h-2.6l-.11,0-7.41,3.52a.34.34,0,0,0-.12.12l-2.67,5.81a.21.21,0,0,0,0,.11h0v6.46H70.18ZM60.1,26.83l7,3.31,2.05,4.47-1.51-1.52c-1.22-2.44-4-4.36-7.51-5.17Zm0,1.6c3.24.78,5.83,2.54,7,4.77l-2.21,2.21-2.33-2.34a.27.27,0,0,0-.18-.08.25.25,0,0,0-.18.08l-2.1,2.1ZM46.35,30.14l7-3.31v1.09c-3.49.81-6.28,2.72-7.5,5.16L44.3,34.61Zm7-1.71v6.74l-2.1-2.1a.25.25,0,0,0-.36,0l-2.33,2.34-2.2-2.2C47.5,31,50.08,29.21,53.32,28.43Zm16.36,13.3H43.74V35.87L46,33.6l2.31,2.3a.27.27,0,0,0,.44,0L51,33.6,53.39,36a.29.29,0,0,0,.18.07l.09,0a.25.25,0,0,0,.16-.23V26.69H59.6v9.08a.25.25,0,0,0,.16.23l.09,0A.29.29,0,0,0,60,36l2.35-2.35,2.3,2.3a.28.28,0,0,0,.45,0l2.28-2.28,2.27,2.27Z"/><path class="cls-1" d="M58.25,31.42a1.54,1.54,0,1,0-3.08,0v4.35h3.08Zm-.5,3.85H55.67V31.42a1,1,0,1,1,2.08,0Z"/><path class="cls-1" d="M52.35,37.21H50.72a.73.73,0,0,0-.73.73v1.63a.73.73,0,0,0,.73.73h1.63a.73.73,0,0,0,.73-.73V37.94A.73.73,0,0,0,52.35,37.21Zm.23,2.36a.24.24,0,0,1-.23.23H50.72a.24.24,0,0,1-.23-.23V37.94a.24.24,0,0,1,.23-.23h1.63a.24.24,0,0,1,.23.23Z"/><path class="cls-1" d="M62.71,37.21H61.08a.73.73,0,0,0-.73.73v1.63a.73.73,0,0,0,.73.73h1.63a.73.73,0,0,0,.73-.73V37.94A.73.73,0,0,0,62.71,37.21Zm.23,2.36a.23.23,0,0,1-.23.23H61.08a.24.24,0,0,1-.23-.23V37.94a.24.24,0,0,1,.23-.23h1.63a.23.23,0,0,1,.23.23Z"/><path class="cls-1" d="M65.38,37.94v1.63a.73.73,0,0,0,.73.73h1.63a.73.73,0,0,0,.73-.73V37.94a.73.73,0,0,0-.73-.73H66.11A.73.73,0,0,0,65.38,37.94Zm2.59,0v1.63a.23.23,0,0,1-.23.23H66.11a.24.24,0,0,1-.23-.23V37.94a.24.24,0,0,1,.23-.23h1.63A.23.23,0,0,1,68,37.94Z"/><path class="cls-1" d="M47.31,37.21H45.68a.73.73,0,0,0-.73.73v1.63a.73.73,0,0,0,.73.73h1.63a.73.73,0,0,0,.73-.73V37.94A.73.73,0,0,0,47.31,37.21Zm.23,2.36a.24.24,0,0,1-.23.23H45.68a.24.24,0,0,1-.23-.23V37.94a.24.24,0,0,1,.23-.23h1.63a.24.24,0,0,1,.23.23Z"/><path class="cls-1" d="M56.87,37.21h-.32a1.62,1.62,0,0,0-1.62,1.63v.73a.73.73,0,0,0,.73.73h2.1a.73.73,0,0,0,.73-.73v-.73A1.62,1.62,0,0,0,56.87,37.21ZM58,39.57a.23.23,0,0,1-.23.23h-2.1a.23.23,0,0,1-.23-.23v-.73a1.13,1.13,0,0,1,1.12-1.13h.32A1.13,1.13,0,0,1,58,38.84Z"/><path class="cls-1" d="M61.77,74.07l-1,1.14a.25.25,0,0,0,0,.35.27.27,0,0,0,.17.06.25.25,0,0,0,.19-.09l1-1.13a.25.25,0,1,0-.37-.33Z"/><path class="cls-1" d="M50.68,69.91h1.47a.25.25,0,0,0,.25-.25.25.25,0,0,0-.25-.25H50.68a.26.26,0,0,0-.25.25A.25.25,0,0,0,50.68,69.91Z"/><polygon class="cls-1" points="63.65 44.5 63.4 44.07 63.16 44.5 62.66 44.5 62.91 44.92 62.66 45.35 63.16 45.35 63.4 45.77 63.65 45.35 64.14 45.35 63.89 44.92 64.14 44.5 63.65 44.5"/><polygon class="cls-1" points="67.46 44.5 67.21 44.07 66.97 44.5 66.48 44.5 66.72 44.92 66.48 45.35 66.97 45.35 67.21 45.77 67.46 45.35 67.95 45.35 67.7 44.92 67.95 44.5 67.46 44.5"/><polygon class="cls-1" points="59.83 44.5 59.59 44.07 59.34 44.5 58.85 44.5 59.1 44.92 58.85 45.35 59.34 45.35 59.59 45.77 59.83 45.35 60.32 45.35 60.08 44.92 60.32 44.5 59.83 44.5"/><polygon class="cls-1" points="65.67 50.6 65.43 50.19 65.19 50.6 64.72 50.6 64.96 51.01 64.72 51.42 65.19 51.42 65.43 51.83 65.67 51.42 66.14 51.42 65.91 51.01 66.14 50.6 65.67 50.6"/><polygon class="cls-1" points="61.61 50.59 61.37 50.18 61.13 50.59 60.65 50.59 60.89 51.01 60.65 51.42 61.13 51.42 61.37 51.83 61.61 51.42 62.09 51.42 61.85 51.01 62.09 50.59 61.61 50.59"/><polygon class="cls-1" points="63.64 56.67 63.4 56.26 63.16 56.67 62.69 56.67 62.93 57.08 62.69 57.49 63.16 57.49 63.4 57.9 63.64 57.49 64.11 57.49 63.87 57.08 64.11 56.67 63.64 56.67"/><path class="cls-1" d="M10.81,60.9a1.1,1.1,0,0,1-.38,0,.71.71,0,0,1-.26-.14A.53.53,0,0,1,10,60.5a.82.82,0,0,1-.07-.29.72.72,0,0,1,0-.29.55.55,0,0,1,.12-.24.76.76,0,0,1,.24-.18,1,1,0,0,1,.37-.09,1.07,1.07,0,0,1,.37,0,1,1,0,0,1,.27.14.63.63,0,0,1,.16.23.88.88,0,0,1,.07.29.7.7,0,0,1,0,.29.55.55,0,0,1-.13.25.61.61,0,0,1-.24.17A1,1,0,0,1,10.81,60.9Z"/><path class="cls-1" d="M14,53.36a3.27,3.27,0,0,1-.17.88,1.84,1.84,0,0,1-.38.64,1.49,1.49,0,0,1-.62.37,2.67,2.67,0,0,1-.88.08l-3.25-.25a.69.69,0,0,0-.3,0,.53.53,0,0,0-.19.13.63.63,0,0,0-.09.22,2,2,0,0,0,0,.26v.11l-.35,0,.19-2.44.35,0v.11a1.22,1.22,0,0,0,0,.27.52.52,0,0,0,.07.22.33.33,0,0,0,.17.16.77.77,0,0,0,.31.08l3.27.25a1.71,1.71,0,0,0,.62,0,1.2,1.2,0,0,0,.44-.26,1.26,1.26,0,0,0,.27-.43,1.85,1.85,0,0,0,.11-.55,1.62,1.62,0,0,0,0-.64,1.19,1.19,0,0,0-.24-.46,1.05,1.05,0,0,0-.39-.29,1.42,1.42,0,0,0-.52-.12L9,51.42a.87.87,0,0,0-.3,0,.43.43,0,0,0-.19.13.63.63,0,0,0-.09.22,2,2,0,0,0,0,.26v.1l-.35,0,.16-2.1.35,0v.38a.48.48,0,0,0,.07.22.46.46,0,0,0,.17.17.82.82,0,0,0,.31.08l3.32.25a1.92,1.92,0,0,1,.74.19,1.6,1.6,0,0,1,.53.43,1.94,1.94,0,0,1,.31.68A2.83,2.83,0,0,1,14,53.36Z"/><path class="cls-1" d="M15.18,45.78l-5.41,2,3.79.84a.73.73,0,0,0,.32,0,.51.51,0,0,0,.22-.11.7.7,0,0,0,.13-.19,2,2,0,0,0,.07-.26l0-.11.34.08-.46,2.06-.34-.08,0-.1a1.47,1.47,0,0,0,0-.27.59.59,0,0,0,0-.23.37.37,0,0,0-.14-.19.85.85,0,0,0-.3-.12l-4-.89a.81.81,0,0,0-.3,0,.55.55,0,0,0-.2.11.53.53,0,0,0-.13.2,1.82,1.82,0,0,0-.07.25l0,.11-.34-.08.33-1.5,5.19-1.92-3.63-.81a.62.62,0,0,0-.3,0,.36.36,0,0,0-.2.11.43.43,0,0,0-.13.19,1.6,1.6,0,0,0-.08.26l0,.1-.34-.07.45-2.06.35.08,0,.1a1.24,1.24,0,0,0,0,.27.45.45,0,0,0,0,.23.43.43,0,0,0,.15.18.71.71,0,0,0,.29.12l4.92,1.1Z"/><path class="cls-1" d="M15.74,43.88l-.33-.11,0-.1c0-.1.05-.18.07-.27a.59.59,0,0,0,0-.23.47.47,0,0,0-.12-.2.78.78,0,0,0-.29-.15l-3.86-1.33a.62.62,0,0,0-.31-.05.38.38,0,0,0-.23.08.55.55,0,0,0-.15.18,1.33,1.33,0,0,0-.1.24l0,.1-.33-.11.79-2.31.34.11,0,.11a1.1,1.1,0,0,0-.06.26.45.45,0,0,0,0,.23.41.41,0,0,0,.13.2.79.79,0,0,0,.28.16L15.37,42a.65.65,0,0,0,.32.05.35.35,0,0,0,.22-.08.45.45,0,0,0,.15-.18c0-.07.07-.15.11-.24l0-.11.33.12Z"/><path class="cls-1" d="M17.64,38.94l-5.48-.54h-.24a.48.48,0,0,0-.17.05.49.49,0,0,0-.13.12.78.78,0,0,0-.11.18l0,.1-.32-.15,1-2.09.32.15-.09.17a.67.67,0,0,0-.07.39.38.38,0,0,0,.23.24l.13,0,.18,0,2.86.31c.26,0,.51.06.75.11s.46.08.66.13l-.52-.42q-.27-.23-.57-.51l-2-2-.16-.13a.55.55,0,0,0-.14-.09.34.34,0,0,0-.34,0,.66.66,0,0,0-.26.33l-.08.18-.32-.15.86-1.86.32.15-.07.15a.89.89,0,0,0-.06.2.37.37,0,0,0,0,.18,1,1,0,0,0,.13.21,2.81,2.81,0,0,0,.25.26l3.79,3.68Z"/><path class="cls-1" d="M19.66,34.23l.86-1.37a.87.87,0,0,0,.14-.32.64.64,0,0,0-.11-.52.91.91,0,0,0-.18-.21l-.28-.24.23-.37,1.22.83-2.4,3.81-.3-.19.06-.08a1.34,1.34,0,0,0,.12-.24.66.66,0,0,0,.06-.22.36.36,0,0,0-.07-.22.74.74,0,0,0-.22-.21L15.3,32.49a1,1,0,0,0-.3-.13.43.43,0,0,0-.23,0,.62.62,0,0,0-.19.14,1.77,1.77,0,0,0-.16.22l-.06.09-.3-.19,2.26-3.58,1.26.74-.23.37L17,30a.84.84,0,0,0-.25-.09.57.57,0,0,0-.26,0,.6.6,0,0,0-.25.1.92.92,0,0,0-.22.25l-.75,1.19,1.9,1.19L18.26,31l.35.21-1.08,1.72Z"/><path class="cls-1" d="M23.89,27.43a2.4,2.4,0,0,0,.66,0,.67.67,0,0,0,.42-.26h0l.27.22-.07.09c-.17.2-.31.36-.43.48a1.41,1.41,0,0,1-.36.27,1,1,0,0,1-.37.08,2.81,2.81,0,0,1-.47,0L21.38,28l-.44.54,1.34,1.09a.64.64,0,0,0,.26.15.36.36,0,0,0,.23,0,.53.53,0,0,0,.2-.12l.18-.19.07-.09.27.22-1.55,1.9-.27-.23.07-.08a1.07,1.07,0,0,0,.15-.22.47.47,0,0,0,.05-.44.8.8,0,0,0-.2-.23l-3.22-2.63a.64.64,0,0,0-.26-.15.44.44,0,0,0-.23,0,.41.41,0,0,0-.2.12,1.14,1.14,0,0,0-.19.19l-.06.08-.28-.22,1.43-1.75a2.66,2.66,0,0,1,1.35-1,1.38,1.38,0,0,1,1.27.36,1.34,1.34,0,0,1,.39.45,1.62,1.62,0,0,1,.16.5,1.67,1.67,0,0,1,0,.5,2.93,2.93,0,0,1-.12.47Zm-3.26.81.38-.46a1.92,1.92,0,0,0,.32-.53.75.75,0,0,0,.06-.46,1,1,0,0,0-.18-.42A2.26,2.26,0,0,0,20.8,26a1.68,1.68,0,0,0-.48-.31.87.87,0,0,0-.44-.07.93.93,0,0,0-.43.17,2.48,2.48,0,0,0-.43.43l-.36.44Z"/><path class="cls-1" d="M26.81,26a2.47,2.47,0,0,1-.58.44,1.4,1.4,0,0,1-.54.19,1,1,0,0,1-.49,0,1.11,1.11,0,0,1-.41-.28.5.5,0,0,1-.17-.4.57.57,0,0,1,.21-.42,2.26,2.26,0,0,0,.41.3,1.33,1.33,0,0,0,.44.17,1,1,0,0,0,.46,0,1.05,1.05,0,0,0,.44-.27,1.27,1.27,0,0,0,.44-.81.94.94,0,0,0-.32-.78.9.9,0,0,0-.32-.25,1,1,0,0,0-.39-.09,1.84,1.84,0,0,0-.48.08,5.55,5.55,0,0,0-.65.22,4,4,0,0,1-.73.22,2,2,0,0,1-.63.05,1.52,1.52,0,0,1-.55-.16,1.89,1.89,0,0,1-.5-.38,1.46,1.46,0,0,1-.35-.56,1.4,1.4,0,0,1-.05-.61,1.52,1.52,0,0,1,.21-.62,2.21,2.21,0,0,1,.46-.58,2.37,2.37,0,0,1,.53-.41,1.64,1.64,0,0,1,.5-.19,1,1,0,0,1,.43,0,.69.69,0,0,1,.32.19.47.47,0,0,1,.16.41.82.82,0,0,1-.26.44,1.42,1.42,0,0,0-.3-.25,1.17,1.17,0,0,0-.35-.14.83.83,0,0,0-.38,0,.93.93,0,0,0-.38.24,1.37,1.37,0,0,0-.27.35,1.08,1.08,0,0,0-.1.37.84.84,0,0,0,.07.35,1,1,0,0,0,.22.33,1.3,1.3,0,0,0,.36.28.86.86,0,0,0,.39.09,1.93,1.93,0,0,0,.5-.07,6.18,6.18,0,0,0,.64-.22,4.64,4.64,0,0,1,.69-.23,2.24,2.24,0,0,1,.61-.07,1.64,1.64,0,0,1,.55.12,1.51,1.51,0,0,1,.48.34,1.79,1.79,0,0,1,.39.62,1.51,1.51,0,0,1,.07.67,1.9,1.9,0,0,1-.24.69A2.94,2.94,0,0,1,26.81,26Z"/><path class="cls-1" d="M28.85,24.05l-.22-.28.08-.06a1.84,1.84,0,0,0,.2-.19.56.56,0,0,0,.11-.2.33.33,0,0,0,0-.24.74.74,0,0,0-.15-.27L26.3,19.63a.69.69,0,0,0-.24-.22.46.46,0,0,0-.23-.05.49.49,0,0,0-.22.08,1.43,1.43,0,0,0-.22.15l-.08.06-.23-.27L27,17.85l.22.27-.09.07a1.66,1.66,0,0,0-.19.18.57.57,0,0,0-.12.21.45.45,0,0,0,0,.23.7.7,0,0,0,.15.28l2.57,3.18a.75.75,0,0,0,.24.21.4.4,0,0,0,.23.05.47.47,0,0,0,.22-.07,1.07,1.07,0,0,0,.22-.15l.09-.07.22.27Z"/><path class="cls-1" d="M33,19.8a.87.87,0,0,0,.22.24.51.51,0,0,0,.23.07.59.59,0,0,0,.22-.05l.24-.13.16-.11.19.3-2.18,1.43-.19-.29.16-.11a1.16,1.16,0,0,0,.21-.16.59.59,0,0,0,.14-.18.43.43,0,0,0,0-.23.71.71,0,0,0-.12-.28l-2.56-3.89-.67.44a.81.81,0,0,0-.23.22.54.54,0,0,0-.09.24.65.65,0,0,0,0,.24,2.77,2.77,0,0,0,.1.26l.16.32-.36.24-.77-1.25,3.95-2.6.84,1.21-.36.23-.24-.27a.85.85,0,0,0-.19-.19.53.53,0,0,0-.22-.12.52.52,0,0,0-.25,0,.82.82,0,0,0-.3.12l-.68.45Z"/><path class="cls-1" d="M35.47,17.1l.11.93a1.42,1.42,0,0,0,0,.2.76.76,0,0,0,.06.16.34.34,0,0,0,.26.21.67.67,0,0,0,.42-.1l.17-.08.16.31-1.83.92-.16-.31.14-.08a.78.78,0,0,0,.18-.11.42.42,0,0,0,.09-.16.88.88,0,0,0,0-.24c0-.1,0-.22,0-.36l-.57-5.29.58-.3,4,3.8.19.15a.35.35,0,0,0,.17.06.48.48,0,0,0,.17,0,1,1,0,0,0,.2-.08l.1-.05.16.31-2.06,1-.16-.31.17-.09c.3-.15.39-.35.27-.59a.83.83,0,0,0-.08-.12.68.68,0,0,0-.12-.12l-.72-.69ZM36,14.72l-.53-.52a6.39,6.39,0,0,1-.44-.48c0,.1,0,.2.07.29s0,.2,0,.3,0,.21.05.32,0,.24,0,.38l.19,1.64,1.69-.85Z"/><path class="cls-1" d="M42.13,16.42a3,3,0,0,1-.71.16,1.53,1.53,0,0,1-.58,0,1.1,1.1,0,0,1-.42-.24,1.14,1.14,0,0,1-.26-.42.52.52,0,0,1,0-.44.64.64,0,0,1,.37-.3,2.42,2.42,0,0,0,.24.45,1.18,1.18,0,0,0,.34.33.94.94,0,0,0,.93.1,1.25,1.25,0,0,0,.74-.55,1,1,0,0,0,0-.85,1.25,1.25,0,0,0-.2-.36.81.81,0,0,0-.31-.23,1.83,1.83,0,0,0-.48-.14,5.54,5.54,0,0,0-.67-.06,5.2,5.2,0,0,1-.76-.1,2.06,2.06,0,0,1-.59-.22,1.43,1.43,0,0,1-.44-.37,2.06,2.06,0,0,1-.3-.55,1.37,1.37,0,0,1-.08-.65,1.19,1.19,0,0,1,.2-.58,1.81,1.81,0,0,1,.44-.48,2.57,2.57,0,0,1,.66-.34,2.21,2.21,0,0,1,.66-.15,1.5,1.5,0,0,1,.53,0,.88.88,0,0,1,.39.18.65.65,0,0,1,.22.3.48.48,0,0,1,0,.44.72.72,0,0,1-.41.29,1.29,1.29,0,0,0-.18-.35.92.92,0,0,0-.26-.26.82.82,0,0,0-.36-.14,1.1,1.1,0,0,0-.45.07,1.07,1.07,0,0,0-.38.21.73.73,0,0,0-.24.29.79.79,0,0,0-.09.35,1.15,1.15,0,0,0,.07.39,1,1,0,0,0,.21.39.8.8,0,0,0,.32.25,1.51,1.51,0,0,0,.48.14,5.74,5.74,0,0,0,.67.06,5,5,0,0,1,.73.09,2.41,2.41,0,0,1,.59.18,1.48,1.48,0,0,1,.44.34,1.28,1.28,0,0,1,.3.51,1.68,1.68,0,0,1,.1.72,1.47,1.47,0,0,1-.21.64,2.07,2.07,0,0,1-.5.53A3.46,3.46,0,0,1,42.13,16.42Z"/><path class="cls-1" d="M51.64,9.52a1.64,1.64,0,0,1,0,.5,1.35,1.35,0,0,1-.16.41,1.22,1.22,0,0,1-.29.31,2,2,0,0,1-.38.24v0a1.91,1.91,0,0,1,.54.08,1.41,1.41,0,0,1,.45.25,1.35,1.35,0,0,1,.33.41,1.59,1.59,0,0,1,.18.57A1.44,1.44,0,0,1,52,13.61a2.69,2.69,0,0,1-1.55.64l-2.47.37,0-.35.1,0a1,1,0,0,0,.26-.06.47.47,0,0,0,.21-.11.37.37,0,0,0,.12-.2.85.85,0,0,0,0-.32L48,9.48a.66.66,0,0,0-.1-.28.43.43,0,0,0-.18-.15A.51.51,0,0,0,47.48,9l-.27,0-.1,0-.06-.35,2.23-.33a3,3,0,0,1,1.66.11A1.3,1.3,0,0,1,51.64,9.52Zm-2.57,1.54.58-.08a2.58,2.58,0,0,0,.6-.16.87.87,0,0,0,.35-.26.69.69,0,0,0,.16-.38,1.91,1.91,0,0,0,0-.53,1.42,1.42,0,0,0-.15-.49.66.66,0,0,0-.27-.3.91.91,0,0,0-.43-.12,2.62,2.62,0,0,0-.6,0l-.56.08ZM49.5,14l.81-.12a2.11,2.11,0,0,0,.59-.15.92.92,0,0,0,.36-.27.8.8,0,0,0,.17-.41,2.21,2.21,0,0,0,0-.57,2.52,2.52,0,0,0-.15-.56.82.82,0,0,0-.27-.36.9.9,0,0,0-.42-.18,2.17,2.17,0,0,0-.62,0l-.83.13Z"/><path class="cls-1" d="M56.07,13.88a3.46,3.46,0,0,1-.89-.1,1.55,1.55,0,0,1-.67-.32,1.4,1.4,0,0,1-.43-.58,2.37,2.37,0,0,1-.16-.87l-.05-3.26a.6.6,0,0,0-.06-.29.54.54,0,0,0-.15-.18.71.71,0,0,0-.22-.07l-.26,0h-.11V7.84l2.45,0v.35H55.4a1.09,1.09,0,0,0-.26,0,.48.48,0,0,0-.22.08.58.58,0,0,0-.15.19.87.87,0,0,0-.05.31l.05,3.28a1.63,1.63,0,0,0,.12.62,1,1,0,0,0,.29.41,1.2,1.2,0,0,0,.45.23,1.72,1.72,0,0,0,.57.06,1.87,1.87,0,0,0,.62-.1,1.38,1.38,0,0,0,.44-.28,1.12,1.12,0,0,0,.25-.42,1.78,1.78,0,0,0,.08-.53L57.53,8.7a.64.64,0,0,0-.06-.3.41.41,0,0,0-.15-.17.53.53,0,0,0-.22-.08h-.37V7.79l2.11,0v.36h-.11l-.27,0a.73.73,0,0,0-.22.09.42.42,0,0,0-.14.18.74.74,0,0,0-.05.32l.05,3.33a2.19,2.19,0,0,1-.12.75,1.45,1.45,0,0,1-.39.57,1.74,1.74,0,0,1-.64.37A2.9,2.9,0,0,1,56.07,13.88Z"/><path class="cls-1" d="M65,11.45a4.65,4.65,0,0,1-.32,1.21,2.51,2.51,0,0,1-.63.88,2.27,2.27,0,0,1-.92.49,3.22,3.22,0,0,1-1.22.07l-2.55-.32,0-.35h.1a1.26,1.26,0,0,0,.27,0,.56.56,0,0,0,.23,0,.46.46,0,0,0,.17-.17.89.89,0,0,0,.09-.3l.5-4.09a.73.73,0,0,0,0-.3.43.43,0,0,0-.13-.19.7.7,0,0,0-.21-.11l-.26-.05H60l.05-.35,2.55.31a3.35,3.35,0,0,1,1.12.34,2.48,2.48,0,0,1,.79.68,2.64,2.64,0,0,1,.41,1A3.92,3.92,0,0,1,65,11.45Zm-3.23,2.2a2.15,2.15,0,0,0,.89-.06,1.77,1.77,0,0,0,.68-.42,2.13,2.13,0,0,0,.47-.76A4,4,0,0,0,64,11.33a3.06,3.06,0,0,0-.26-2,1.75,1.75,0,0,0-1.4-.83l-.73-.09L61,13.56Z"/><path class="cls-1" d="M67,13l-.54.77a.81.81,0,0,0-.1.18s0,.11-.07.15a.39.39,0,0,0,.06.34.71.71,0,0,0,.38.2l.18.05-.09.34-2-.52.09-.35.16.05a.47.47,0,0,0,.2,0,.41.41,0,0,0,.18,0,.86.86,0,0,0,.18-.16l.22-.28L69,9.34l.63.17L70.11,15a1.2,1.2,0,0,0,0,.23.67.67,0,0,0,.08.17.53.53,0,0,0,.14.11.77.77,0,0,0,.2.07l.11,0-.09.34-2.24-.59.09-.34.19.05c.33.08.52,0,.59-.26a.68.68,0,0,0,0-.14,1.15,1.15,0,0,0,0-.18l-.08-1Zm2-1.43c0-.27,0-.51,0-.74a4.89,4.89,0,0,1,0-.66c0,.1-.09.19-.14.27l-.16.26a2.11,2.11,0,0,1-.18.27,2.58,2.58,0,0,1-.22.31l-.94,1.35,1.83.49Z"/><path class="cls-1" d="M70.85,16.11l.13-.33.1,0,.26.09a.65.65,0,0,0,.24,0,.44.44,0,0,0,.2-.11.79.79,0,0,0,.17-.28l1.55-3.81a.58.58,0,0,0,.06-.3.38.38,0,0,0-.07-.21.52.52,0,0,0-.17-.16l-.24-.12-.1,0,.14-.32,2.18.89a3,3,0,0,1,.8.45,1.88,1.88,0,0,1,.47.57,1.32,1.32,0,0,1,.14.65,2,2,0,0,1-.16.73,2.07,2.07,0,0,1-.38.62,1.42,1.42,0,0,1-.58.42,1.87,1.87,0,0,1-.81.13,3,3,0,0,1-1-.25l-.49-.2-.54,1.31a.61.61,0,0,0-.06.3.48.48,0,0,0,.07.21.93.93,0,0,0,.18.16,1.33,1.33,0,0,0,.24.11l.25.11-.13.32Zm2.56-1.91.41.17a2.72,2.72,0,0,0,.63.17,1,1,0,0,0,.51-.07,1.15,1.15,0,0,0,.41-.33,2.56,2.56,0,0,0,.33-.6,2.86,2.86,0,0,0,.17-.59,1.12,1.12,0,0,0-.05-.49.86.86,0,0,0-.28-.39,2.1,2.1,0,0,0-.52-.31l-.53-.21Z"/><path class="cls-1" d="M77.18,18.49l1.41.78a.83.83,0,0,0,.33.12.65.65,0,0,0,.28,0,.57.57,0,0,0,.23-.12.9.9,0,0,0,.2-.19l.22-.29.38.21-.76,1.26-3.93-2.19.17-.31.09.06.24.11a.62.62,0,0,0,.23,0,.37.37,0,0,0,.21-.08.66.66,0,0,0,.2-.23l2-3.61a.85.85,0,0,0,.11-.3.59.59,0,0,0,0-.23.65.65,0,0,0-.15-.18l-.23-.15-.09-.05.17-.31,3.7,2.06-.68,1.3L81.09,16l.14-.33a.9.9,0,0,0,.07-.27.52.52,0,0,0,0-.25.55.55,0,0,0-.12-.24.75.75,0,0,0-.25-.21L79.68,14,78.6,15.93l1.77,1-.2.36-1.77-1Z"/><path class="cls-1" d="M81.47,21.74a2.9,2.9,0,0,1-.54-.49,1.58,1.58,0,0,1-.28-.5.91.91,0,0,1,0-.49,1.11,1.11,0,0,1,.19-.45.53.53,0,0,1,.37-.24.58.58,0,0,1,.45.13,2.82,2.82,0,0,0-.23.46,1.54,1.54,0,0,0-.08.46,1,1,0,0,0,.11.44,1,1,0,0,0,.35.39,1.25,1.25,0,0,0,.87.29,1,1,0,0,0,.72-.45,1.14,1.14,0,0,0,.18-.37.84.84,0,0,0,0-.39,2.18,2.18,0,0,0-.16-.47,4.31,4.31,0,0,0-.34-.59,6.34,6.34,0,0,1-.35-.68,2,2,0,0,1-.16-.61,1.78,1.78,0,0,1,.06-.57,2.1,2.1,0,0,1,.28-.56,1.54,1.54,0,0,1,.49-.44,1.38,1.38,0,0,1,.59-.17,1.66,1.66,0,0,1,.65.1,2.39,2.39,0,0,1,.65.34,2.26,2.26,0,0,1,.5.46,1.58,1.58,0,0,1,.28.45,1,1,0,0,1,.07.43.7.7,0,0,1-.12.35.47.47,0,0,1-.38.22.72.72,0,0,1-.47-.17,1.86,1.86,0,0,0,.19-.34,1.16,1.16,0,0,0,.07-.37,1.08,1.08,0,0,0-.1-.37.87.87,0,0,0-.31-.33,1.21,1.21,0,0,0-.39-.2.79.79,0,0,0-.37,0,.83.83,0,0,0-.34.13,1.09,1.09,0,0,0-.29.28,1.45,1.45,0,0,0-.2.39.81.81,0,0,0,0,.41,1.69,1.69,0,0,0,.15.47c.09.17.2.37.34.59a5.26,5.26,0,0,1,.35.65,2.34,2.34,0,0,1,.18.59,1.45,1.45,0,0,1,0,.55,1.64,1.64,0,0,1-.25.54,1.77,1.77,0,0,1-.54.49,1.33,1.33,0,0,1-.65.19,1.86,1.86,0,0,1-.72-.11A3,3,0,0,1,81.47,21.74Z"/><path class="cls-1" d="M86.31,24.31a.7.7,0,0,0-.17.27.39.39,0,0,0,0,.24.42.42,0,0,0,.1.2,1.8,1.8,0,0,0,.19.2l.14.13-.23.26-2-1.75.24-.26.14.13a1.46,1.46,0,0,0,.21.16.48.48,0,0,0,.21.09.37.37,0,0,0,.23,0,.67.67,0,0,0,.24-.19l3.11-3.47-.6-.54a.83.83,0,0,0-.26-.16.6.6,0,0,0-.26,0,.5.5,0,0,0-.23.09.82.82,0,0,0-.22.16l-.27.24-.33-.29,1-1.07,3.52,3.16-1,1.12-.32-.29.21-.3a1.34,1.34,0,0,0,.13-.23.61.61,0,0,0,.06-.25.47.47,0,0,0,0-.25.84.84,0,0,0-.2-.25l-.61-.54Z"/><path class="cls-1" d="M87.48,26.76l.26-.24.07.08.2.18a.71.71,0,0,0,.21.11.5.5,0,0,0,.24,0,1.07,1.07,0,0,0,.27-.17l3-2.77a.84.84,0,0,0,.2-.25.47.47,0,0,0,0-.23.58.58,0,0,0-.08-.22L91.71,23l-.07-.08.26-.24,1.65,1.8-.26.24-.07-.09c-.07-.06-.13-.13-.2-.18a.5.5,0,0,0-.21-.1.45.45,0,0,0-.23,0,.71.71,0,0,0-.27.18l-3,2.76a.62.62,0,0,0-.19.26.38.38,0,0,0,0,.23.57.57,0,0,0,.09.22l.16.21.08.08-.26.24Z"/><path class="cls-1" d="M92.25,32.58l2-5.41-3.13,2.3a1.15,1.15,0,0,0-.22.23.53.53,0,0,0-.06.23.68.68,0,0,0,.07.23,2,2,0,0,0,.14.23l.06.09-.28.2L89.61,29l.28-.2.07.08a1.2,1.2,0,0,0,.17.21.47.47,0,0,0,.2.12.36.36,0,0,0,.23,0,.6.6,0,0,0,.29-.14l3.32-2.44a.62.62,0,0,0,.21-.22.59.59,0,0,0,.05-.22.68.68,0,0,0-.07-.23l-.14-.22-.06-.09.28-.21.91,1.24-2,5.18,3-2.21a.62.62,0,0,0,.21-.22.59.59,0,0,0,.05-.22.68.68,0,0,0-.07-.23,1.35,1.35,0,0,0-.14-.22l-.07-.09.29-.21,1.25,1.7-.29.21-.06-.09-.18-.2a.59.59,0,0,0-.19-.13.48.48,0,0,0-.24,0,.91.91,0,0,0-.28.14l-4.07,3Z"/><path class="cls-1" d="M94.48,35.41l.77,1.43a1,1,0,0,0,.21.27.55.55,0,0,0,.25.13.57.57,0,0,0,.26,0,1.31,1.31,0,0,0,.27-.06l.34-.12.21.38-1.31.65-2.16-3.95.31-.17.05.09a2.32,2.32,0,0,0,.14.23.43.43,0,0,0,.18.15.32.32,0,0,0,.22.05.57.57,0,0,0,.28-.09l3.63-2a.91.91,0,0,0,.25-.2.47.47,0,0,0,.09-.22.61.61,0,0,0,0-.23c0-.08-.07-.16-.11-.25l-.06-.09.32-.17,2,3.72-1.27.73-.21-.38.3-.21a.86.86,0,0,0,.2-.18.71.71,0,0,0,.13-.22.59.59,0,0,0,0-.27.89.89,0,0,0-.11-.31L99,32.94,97,34l1,1.78-.36.2-1-1.78Z"/><path class="cls-1" d="M97.39,42.89l3.4-4.67L97.16,39.6a.84.84,0,0,0-.27.17.39.39,0,0,0-.12.2.49.49,0,0,0,0,.24,1.17,1.17,0,0,0,.07.25l0,.1-.33.13-.75-2,.33-.12,0,.1a1.75,1.75,0,0,0,.11.24.66.66,0,0,0,.16.17.42.42,0,0,0,.22.08.84.84,0,0,0,.32-.07l3.85-1.46a.72.72,0,0,0,.25-.16.37.37,0,0,0,.11-.2.49.49,0,0,0,0-.24,1.44,1.44,0,0,0-.08-.25l0-.1.33-.12L102,38l-3.26,4.46,3.47-1.32a.64.64,0,0,0,.26-.16.44.44,0,0,0,.11-.2.59.59,0,0,0,0-.23,2.58,2.58,0,0,0-.08-.26l0-.1.33-.13.75,2-.33.13,0-.1a1.33,1.33,0,0,0-.11-.24.47.47,0,0,0-.16-.18.41.41,0,0,0-.22-.07.69.69,0,0,0-.32.06l-4.71,1.8Z"/><path class="cls-1" d="M98.32,46.46a2.85,2.85,0,0,1-.09-.73,1.86,1.86,0,0,1,.11-.56,1.09,1.09,0,0,1,.29-.4,1.17,1.17,0,0,1,.45-.21.53.53,0,0,1,.43,0,.62.62,0,0,1,.26.4,2.22,2.22,0,0,0-.47.2,1.22,1.22,0,0,0-.37.3,1,1,0,0,0-.21.4,1.15,1.15,0,0,0,0,.52,1.35,1.35,0,0,0,.47.79,1,1,0,0,0,.84.13,1.21,1.21,0,0,0,.38-.16,1.08,1.08,0,0,0,.27-.29,1.84,1.84,0,0,0,.18-.46,5.72,5.72,0,0,0,.14-.66,4.27,4.27,0,0,1,.17-.74,2.18,2.18,0,0,1,.29-.57,1.56,1.56,0,0,1,.41-.4,2,2,0,0,1,.58-.23,1.49,1.49,0,0,1,.66,0,1.44,1.44,0,0,1,.56.26,1.89,1.89,0,0,1,.42.5,2.79,2.79,0,0,1,.35,1.36,1.47,1.47,0,0,1-.09.53.81.81,0,0,1-.22.36.63.63,0,0,1-.32.19.51.51,0,0,1-.44-.08.75.75,0,0,1-.24-.44,1.55,1.55,0,0,0,.36-.13.89.89,0,0,0,.3-.24.91.91,0,0,0,.17-.34.88.88,0,0,0,0-.45,1.17,1.17,0,0,0-.16-.41,1,1,0,0,0-.27-.27.92.92,0,0,0-.34-.12,1.11,1.11,0,0,0-.4,0,1.41,1.41,0,0,0-.41.17.86.86,0,0,0-.28.29,1.77,1.77,0,0,0-.19.46,4.69,4.69,0,0,0-.13.67,5.78,5.78,0,0,1-.16.71,2.51,2.51,0,0,1-.25.57,1.32,1.32,0,0,1-.38.4,1.48,1.48,0,0,1-.54.24,1.66,1.66,0,0,1-.73,0,1.54,1.54,0,0,1-.61-.28,1.87,1.87,0,0,1-.47-.56A2.72,2.72,0,0,1,98.32,46.46Z"/><path class="cls-1" d="M99,49.24l.35-.05,0,.1a1.07,1.07,0,0,0,.06.27.43.43,0,0,0,.11.2.37.37,0,0,0,.2.12.67.67,0,0,0,.32,0l4-.59a.7.7,0,0,0,.3-.1.43.43,0,0,0,.16-.17.59.59,0,0,0,.05-.23,1.23,1.23,0,0,0,0-.27v-.11l.35-.05.35,2.42-.35.05v-.11l-.06-.26a.56.56,0,0,0-.12-.2.37.37,0,0,0-.2-.12.66.66,0,0,0-.32,0l-4,.59a.75.75,0,0,0-.31.1.64.64,0,0,0-.16.17.59.59,0,0,0,0,.23,2.45,2.45,0,0,0,0,.27l0,.11-.35,0Z"/><path class="cls-1" d="M99.47,54.09a2.72,2.72,0,0,1,0-.72,1.39,1.39,0,0,1,.21-.54,1,1,0,0,1,.35-.34,1.11,1.11,0,0,1,.48-.13.59.59,0,0,1,.42.13.62.62,0,0,1,.18.44,2.61,2.61,0,0,0-.5.11,1.42,1.42,0,0,0-.42.23.9.9,0,0,0-.27.36,1,1,0,0,0-.09.51,1.3,1.3,0,0,0,.33.87,1,1,0,0,0,.8.27,1.24,1.24,0,0,0,.4-.09,1,1,0,0,0,.31-.23,1.69,1.69,0,0,0,.27-.42c.08-.17.16-.38.25-.63a4.19,4.19,0,0,1,.31-.7,1.78,1.78,0,0,1,.38-.5,1.39,1.39,0,0,1,.48-.32,1.89,1.89,0,0,1,.61-.13,1.51,1.51,0,0,1,.65.1,1.39,1.39,0,0,1,.5.36,1.78,1.78,0,0,1,.33.57,2.36,2.36,0,0,1,.14.72,2.44,2.44,0,0,1,0,.68,1.73,1.73,0,0,1-.18.5.91.91,0,0,1-.29.32.56.56,0,0,1-.34.12.5.5,0,0,1-.42-.15.83.83,0,0,1-.17-.47,1.68,1.68,0,0,0,.39-.07,1.06,1.06,0,0,0,.33-.18.86.86,0,0,0,.23-.3,1.09,1.09,0,0,0,.07-.46,1.3,1.3,0,0,0-.09-.42,1.05,1.05,0,0,0-.21-.31.8.8,0,0,0-.32-.19,1,1,0,0,0-.39,0,1.37,1.37,0,0,0-.44.09.85.85,0,0,0-.33.24,1.69,1.69,0,0,0-.27.42,5.16,5.16,0,0,0-.25.63,6.37,6.37,0,0,1-.28.68,3.26,3.26,0,0,1-.35.51,1.45,1.45,0,0,1-.45.33,1.69,1.69,0,0,1-1.29,0,1.42,1.42,0,0,1-.55-.39,1.78,1.78,0,0,1-.37-.63A3.06,3.06,0,0,1,99.47,54.09Z"/><path class="cls-1" d="M102.73,59.59a1.2,1.2,0,0,1,.37.08.76.76,0,0,1,.24.18.58.58,0,0,1,.12.25.7.7,0,0,1,0,.29.94.94,0,0,1-.06.29.6.6,0,0,1-.16.22A.72.72,0,0,1,103,61a1.19,1.19,0,0,1-.39,0,1,1,0,0,1-.36-.09.61.61,0,0,1-.24-.17.64.64,0,0,1-.12-.25.72.72,0,0,1,0-.29.82.82,0,0,1,.07-.29.6.6,0,0,1,.16-.22.63.63,0,0,1,.27-.14A1.07,1.07,0,0,1,102.73,59.59Z"/><path class="cls-1" d="M12.61,69.69a4.21,4.21,0,0,1-1.25.11,2.72,2.72,0,0,1-1-.28,2.32,2.32,0,0,1-.78-.69,3.48,3.48,0,0,1-.48-1.12L8.48,65.2l.34-.08,0,.11a1,1,0,0,0,.08.25.46.46,0,0,0,.13.2.41.41,0,0,0,.21.1.72.72,0,0,0,.32,0l4-.94a.56.56,0,0,0,.28-.12.38.38,0,0,0,.13-.18.47.47,0,0,0,0-.24c0-.08,0-.17,0-.26l0-.1.35-.08.58,2.5A3.2,3.2,0,0,1,15,67.52a2.12,2.12,0,0,1-.37,1,2.56,2.56,0,0,1-.79.74A4.12,4.12,0,0,1,12.61,69.69ZM9.43,67.42a2.09,2.09,0,0,0,.37.81,1.61,1.61,0,0,0,.63.5,2.32,2.32,0,0,0,.87.18,4.05,4.05,0,0,0,1.1-.13,3.16,3.16,0,0,0,1.75-.92,1.77,1.77,0,0,0,.3-1.61l-.17-.71-5,1.17Z"/><path class="cls-1" d="M11.17,73.35l.58,1.52a1.07,1.07,0,0,0,.17.3.87.87,0,0,0,.22.17,1.22,1.22,0,0,0,.26.06,1.33,1.33,0,0,0,.28,0L13,75.3l.16.4-1.39.47L10.19,72l.33-.13,0,.1c0,.09.07.17.11.24a.65.65,0,0,0,.15.18.49.49,0,0,0,.21.08.58.58,0,0,0,.3-.06l3.86-1.47a.69.69,0,0,0,.27-.16.47.47,0,0,0,.12-.2.49.49,0,0,0,0-.24,2.33,2.33,0,0,0-.07-.25l0-.1.33-.13,1.51,4L16,74.35l-.16-.41.33-.17a1.07,1.07,0,0,0,.22-.15.65.65,0,0,0,.16-.21.66.66,0,0,0,.06-.26.84.84,0,0,0-.07-.32L16,71.52l-2.09.79.73,1.9-.39.14-.72-1.89Z"/><path class="cls-1" d="M15,82.39a2.78,2.78,0,0,1-.31-.66,1.48,1.48,0,0,1-.07-.57,1.07,1.07,0,0,1,.14-.47,1.18,1.18,0,0,1,.36-.34.57.57,0,0,1,.43-.09.66.66,0,0,1,.37.3,2.5,2.5,0,0,0-.39.34,1.28,1.28,0,0,0-.25.4,1,1,0,0,0-.07.44,1.11,1.11,0,0,0,.17.49,1.38,1.38,0,0,0,.7.61,1,1,0,0,0,.84-.15,1.18,1.18,0,0,0,.31-.27,1,1,0,0,0,.16-.36,1.84,1.84,0,0,0,0-.49c0-.19,0-.41-.08-.67a4.29,4.29,0,0,1-.07-.76,2.08,2.08,0,0,1,.09-.63,1.56,1.56,0,0,1,.27-.51,1.76,1.76,0,0,1,.48-.4,1.35,1.35,0,0,1,1.22-.16,1.91,1.91,0,0,1,.56.34,2.69,2.69,0,0,1,.48.57,2.79,2.79,0,0,1,.29.61,1.75,1.75,0,0,1,.08.53.93.93,0,0,1-.1.42.58.58,0,0,1-.24.27.48.48,0,0,1-.44.07.8.8,0,0,1-.37-.34,1.76,1.76,0,0,0,.3-.24,1.11,1.11,0,0,0,.21-.32.9.9,0,0,0,.05-.37.88.88,0,0,0-.16-.43,1.16,1.16,0,0,0-.28-.33A.82.82,0,0,0,19,79a1.32,1.32,0,0,0-.71.44,1.16,1.16,0,0,0-.18.37,2,2,0,0,0,0,.5c0,.19,0,.41.08.67a4.93,4.93,0,0,1,.08.73,2,2,0,0,1-.06.61,1.48,1.48,0,0,1-.23.51,1.56,1.56,0,0,1-.44.4,1.66,1.66,0,0,1-.68.25,1.52,1.52,0,0,1-.67-.07,2,2,0,0,1-.62-.38A3.13,3.13,0,0,1,15,82.39Z"/><path class="cls-1" d="M18.38,86.38l1,1.26a.8.8,0,0,0,.25.24.72.72,0,0,0,.27.09.78.78,0,0,0,.26,0,1.12,1.12,0,0,0,.25-.11l.32-.18L21,88l-1.19.87L17,85.35l.28-.22.07.08a.86.86,0,0,0,.18.2.44.44,0,0,0,.19.12.44.44,0,0,0,.23,0,.64.64,0,0,0,.26-.15l3.23-2.57a.8.8,0,0,0,.22-.24.46.46,0,0,0,.05-.23.7.7,0,0,0-.07-.22c-.05-.07-.1-.15-.16-.22l-.06-.09.27-.22,2.64,3.32-1.12.94L23,85.53l.25-.26a.68.68,0,0,0,.17-.21.59.59,0,0,0,.09-.24.62.62,0,0,0,0-.27.8.8,0,0,0-.16-.28l-.88-1.11-1.75,1.4,1.27,1.58-.33.26-1.26-1.59Z"/><path class="cls-1" d="M24.56,93.56l.24-.26,0,0,.19.15a.37.37,0,0,0,.19.07.36.36,0,0,0,.2,0,.77.77,0,0,0,.22-.17l3.05-3.29-5.06,2.63-.33-.31,2.2-5.25-3,3.23a.94.94,0,0,0-.19.26.44.44,0,0,0,0,.22.36.36,0,0,0,.08.19l.17.19h0l-.24.26-1.42-1.31.23-.26.08.07.21.17a1,1,0,0,0,.21.09.38.38,0,0,0,.23,0,.54.54,0,0,0,.24-.18l2.82-3a.57.57,0,0,0,.16-.26.36.36,0,0,0,0-.23.54.54,0,0,0-.1-.2l-.19-.2L24.72,86l.24-.26,1.4,1.3-2,4.71,4.52-2.36,1.37,1.27-.24.25L30,90.86l-.21-.17a.58.58,0,0,0-.22-.08.47.47,0,0,0-.23,0,.84.84,0,0,0-.25.2l-2.77,3a.76.76,0,0,0-.18.26.4.4,0,0,0,0,.24.5.5,0,0,0,.1.21,1.62,1.62,0,0,0,.18.2l.08.07-.24.26Z"/><path class="cls-1" d="M31.85,98.83l.18-.3,0,0a1.08,1.08,0,0,0,.21.11.51.51,0,0,0,.2,0,.37.37,0,0,0,.19-.07.81.81,0,0,0,.19-.21l2.39-3.79-4.49,3.51-.38-.24,1.2-5.57-2.34,3.72a1,1,0,0,0-.13.29.41.41,0,0,0,0,.22.38.38,0,0,0,.12.17,1.08,1.08,0,0,0,.2.16h0l-.19.3-1.64-1,.19-.3.09.06.24.13a.59.59,0,0,0,.22,0,.43.43,0,0,0,.22-.06.66.66,0,0,0,.2-.23L31,92.3A.55.55,0,0,0,31.1,92a.41.41,0,0,0,0-.22.62.62,0,0,0-.14-.19l-.22-.15-.09-.06.19-.3,1.62,1-1.09,5,4-3.14,1.57,1-.18.3-.09-.06a1.34,1.34,0,0,0-.24-.12.5.5,0,0,0-.23,0,.37.37,0,0,0-.22.08.74.74,0,0,0-.22.24l-2.18,3.45a.72.72,0,0,0-.12.3.45.45,0,0,0,0,.23.62.62,0,0,0,.14.19,1.4,1.4,0,0,0,.22.16l.09.06-.19.29Z"/><path class="cls-1" d="M36.88,101l1.49.65a.88.88,0,0,0,.33.08.61.61,0,0,0,.28,0,.64.64,0,0,0,.22-.14,1.24,1.24,0,0,0,.18-.22l.19-.31.41.18-.64,1.32-4.13-1.79.14-.32.09,0,.25.09a.65.65,0,0,0,.24,0,.35.35,0,0,0,.2-.1.72.72,0,0,0,.17-.25l1.64-3.79a.83.83,0,0,0,.08-.31.52.52,0,0,0-.07-.22.55.55,0,0,0-.17-.17l-.23-.12-.1,0,.14-.32,3.88,1.68-.54,1.37-.4-.18.1-.34a.86.86,0,0,0,0-.27.75.75,0,0,0,0-.26A.59.59,0,0,0,40.5,97a.91.91,0,0,0-.27-.18l-1.3-.56-.89,2,1.86.8-.16.38-1.86-.8Z"/><path class="cls-1" d="M40.77,103l.1-.34.11,0,.26.06a.65.65,0,0,0,.24,0,.49.49,0,0,0,.19-.14.87.87,0,0,0,.14-.29L43,98.38a.76.76,0,0,0,0-.32.4.4,0,0,0-.09-.21.45.45,0,0,0-.19-.14,1.45,1.45,0,0,0-.25-.1l-.1,0,.1-.34,2.34.69-.1.34-.1,0-.26,0a.59.59,0,0,0-.23,0,.53.53,0,0,0-.2.13.68.68,0,0,0-.13.27l-1.31,4.47,1.59.46a.64.64,0,0,0,.33,0,.74.74,0,0,0,.46-.31A1.12,1.12,0,0,0,45,103l.26-.58.42.13-.56,1.71Z"/><path class="cls-1" d="M50.91,99.27l.51,3.75c0,.29.07.57.1.83s0,.49,0,.69c.07-.2.14-.4.23-.61s.18-.45.3-.71l1.1-2.46,0-.1s0-.08,0-.12a.76.76,0,0,0,0-.11.29.29,0,0,0,0-.09.32.32,0,0,0-.09-.33.65.65,0,0,0-.4-.15l-.18,0,0-.35,2,.29,0,.35-.15,0h-.22a.45.45,0,0,0-.18.07.73.73,0,0,0-.16.18,2.7,2.7,0,0,0-.17.31l-2.12,4.74-.75-.11-.68-4.85-2,4.47-.76-.11-.78-5.37a.7.7,0,0,0-.06-.23.4.4,0,0,0-.1-.15.56.56,0,0,0-.15-.1l-.21,0h-.11l.05-.35,2.29.33-.05.35-.19,0a.66.66,0,0,0-.39,0,.37.37,0,0,0-.17.29.33.33,0,0,0,0,.14,1.41,1.41,0,0,0,0,.18l.38,2.77.09.76c0,.26,0,.49.06.69.07-.21.16-.44.25-.68a8.09,8.09,0,0,1,.31-.76l1.51-3.43Z"/><path class="cls-1" d="M56.92,105.19l1.62,0a1.15,1.15,0,0,0,.34-.06.63.63,0,0,0,.23-.16.86.86,0,0,0,.15-.22,1.07,1.07,0,0,0,.06-.27l.06-.36h.43l0,1.47-4.5.07v-.35h.11a2.06,2.06,0,0,0,.26,0,.48.48,0,0,0,.22-.08A.36.36,0,0,0,56,105a.62.62,0,0,0,.05-.3L56,100.58a.73.73,0,0,0-.06-.32.45.45,0,0,0-.15-.18.53.53,0,0,0-.22-.08,1.17,1.17,0,0,0-.27,0h-.11v-.35l4.23-.08.07,1.47H59l0-.36a1.31,1.31,0,0,0-.06-.27.66.66,0,0,0-.37-.36,1,1,0,0,0-.32,0l-1.41,0,0,2.23,2,0v.41l-2,0Z"/><path class="cls-1" d="M61.16,105.41l0-.35h.11l.26,0a.53.53,0,0,0,.21-.11.34.34,0,0,0,.12-.2.64.64,0,0,0,0-.32l-.47-4.05a.77.77,0,0,0-.08-.31.55.55,0,0,0-.17-.17.59.59,0,0,0-.23,0,.83.83,0,0,0-.27,0h-.11l0-.35,2.43-.28,0,.35h-.11l-.26,0a.7.7,0,0,0-.21.11.45.45,0,0,0-.12.2.65.65,0,0,0,0,.32l.46,4.06a.81.81,0,0,0,.1.31.49.49,0,0,0,.16.16.86.86,0,0,0,.23.06h.38l0,.35Z"/><path class="cls-1" d="M66.59,104.69a2.73,2.73,0,0,1-.73.06,1.54,1.54,0,0,1-.56-.13,1,1,0,0,1-.59-.75.53.53,0,0,1,.07-.43.62.62,0,0,1,.4-.24,2.72,2.72,0,0,0,.19.47,1.08,1.08,0,0,0,.68.6,1.14,1.14,0,0,0,.52,0,1.25,1.25,0,0,0,.81-.45,1,1,0,0,0,.15-.83,1,1,0,0,0-.15-.38.93.93,0,0,0-.28-.28,2.4,2.4,0,0,0-.45-.2A5.52,5.52,0,0,0,66,102a4.39,4.39,0,0,1-.74-.2,2.29,2.29,0,0,1-.56-.3,1.57,1.57,0,0,1-.38-.43,1.89,1.89,0,0,1-.22-.58,1.47,1.47,0,0,1,0-.66,1.37,1.37,0,0,1,.28-.55,1.88,1.88,0,0,1,.51-.41,2.52,2.52,0,0,1,.7-.25,2.69,2.69,0,0,1,.67-.06,1.92,1.92,0,0,1,.52.1,1.08,1.08,0,0,1,.37.24.67.67,0,0,1,.17.32.48.48,0,0,1-.09.44.8.8,0,0,1-.45.23,1.23,1.23,0,0,0-.12-.37.86.86,0,0,0-.23-.3.88.88,0,0,0-.33-.18.89.89,0,0,0-.46,0,1.35,1.35,0,0,0-.41.16.93.93,0,0,0-.27.25.79.79,0,0,0-.14.34,1.36,1.36,0,0,0,0,.4,1.4,1.4,0,0,0,.16.41.89.89,0,0,0,.28.3,2.19,2.19,0,0,0,.46.2,5.52,5.52,0,0,0,.66.15,5.64,5.64,0,0,1,.71.18,2.24,2.24,0,0,1,.56.27,1.32,1.32,0,0,1,.39.39,1.47,1.47,0,0,1,.23.54,1.79,1.79,0,0,1,0,.73,1.45,1.45,0,0,1-.3.61,2,2,0,0,1-.57.45A3.09,3.09,0,0,1,66.59,104.69Z"/><path class="cls-1" d="M77.78,100.87,73,97.7l1.56,3.56a.71.71,0,0,0,.18.27.47.47,0,0,0,.21.11.6.6,0,0,0,.23,0,1.34,1.34,0,0,0,.26-.09l.1-.05.14.33-1.93.84-.14-.32.09,0a1.36,1.36,0,0,0,.24-.13.66.66,0,0,0,.17-.16.44.44,0,0,0,.06-.23.68.68,0,0,0-.08-.31L72.39,97.7a.64.64,0,0,0-.17-.25.37.37,0,0,0-.21-.1.6.6,0,0,0-.23,0,1.25,1.25,0,0,0-.25.09l-.1,0-.14-.32,1.41-.62,4.62,3-1.5-3.41a.69.69,0,0,0-.17-.25.41.41,0,0,0-.21-.1.46.46,0,0,0-.23,0L75,96l-.1,0-.14-.32,1.93-.85.14.32-.1,0-.23.12a.55.55,0,0,0-.17.17.4.4,0,0,0-.06.22.84.84,0,0,0,.07.32l2,4.61Z"/><path class="cls-1" d="M83.37,94.16a4.37,4.37,0,0,1,.52,1.16,2.61,2.61,0,0,1,.09,1.1,2.16,2.16,0,0,1-.36,1,3.07,3.07,0,0,1-1.94,1.22,2.27,2.27,0,0,1-1-.09,2.66,2.66,0,0,1-.93-.56,4.8,4.8,0,0,1-.82-1,4.42,4.42,0,0,1-.53-1.16,2.55,2.55,0,0,1-.1-1.08,2.07,2.07,0,0,1,.37-1A2.85,2.85,0,0,1,79.5,93a2.78,2.78,0,0,1,1.07-.41,2.25,2.25,0,0,1,1,.09,2.67,2.67,0,0,1,.94.55A4.52,4.52,0,0,1,83.37,94.16Zm-3.69,2.32a6.25,6.25,0,0,0,.68.89,2.29,2.29,0,0,0,.69.55,1.42,1.42,0,0,0,.72.15,1.63,1.63,0,0,0,.77-.27,1.76,1.76,0,0,0,.58-.57,1.37,1.37,0,0,0,.17-.72,2.63,2.63,0,0,0-.19-.86,6.82,6.82,0,0,0-.52-1,7,7,0,0,0-.67-.9,2.71,2.71,0,0,0-.69-.54,1.3,1.3,0,0,0-.72-.15,1.56,1.56,0,0,0-.76.27,1.59,1.59,0,0,0-.58.57,1.48,1.48,0,0,0-.18.72,2.44,2.44,0,0,0,.19.86A5.85,5.85,0,0,0,79.68,96.48Z"/><path class="cls-1" d="M90.23,92.34,90,92.08l0,0,.17-.17a.38.38,0,0,0,.09-.18.46.46,0,0,0,0-.2,1.14,1.14,0,0,0-.15-.24l-3-3.36,2.13,5.29-.34.3-5-2.7,2.92,3.28a.88.88,0,0,0,.24.21.42.42,0,0,0,.21.06.4.4,0,0,0,.2-.07l.2-.15h0l.23.26-1.45,1.29-.23-.27.08-.07a1.7,1.7,0,0,0,.19-.19.56.56,0,0,0,.11-.2.45.45,0,0,0,0-.23,1,1,0,0,0-.16-.26l-2.76-3.1a.67.67,0,0,0-.24-.19.46.46,0,0,0-.23,0,.57.57,0,0,0-.22.09,2.35,2.35,0,0,0-.21.16l-.07.07-.24-.26,1.43-1.28,4.49,2.44-1.9-4.74,1.39-1.23.24.26-.08.07a1.19,1.19,0,0,0-.19.2.56.56,0,0,0-.11.2.49.49,0,0,0,0,.24,1.07,1.07,0,0,0,.17.27l2.72,3a.63.63,0,0,0,.25.2.38.38,0,0,0,.23,0,.49.49,0,0,0,.22-.08l.21-.16.08-.07.24.26Z"/><path class="cls-1" d="M92.82,89.71l-.26-.24.07-.08.16-.21a.65.65,0,0,0,.08-.22.45.45,0,0,0,0-.23.78.78,0,0,0-.21-.25L89.54,85.8a.7.7,0,0,0-.27-.17.37.37,0,0,0-.23,0,.53.53,0,0,0-.21.11,1.14,1.14,0,0,0-.19.19l-.07.08-.27-.23,1.6-1.84.27.23-.07.08a1.46,1.46,0,0,0-.16.21.53.53,0,0,0-.08.23.39.39,0,0,0,0,.23.7.7,0,0,0,.2.25l3.08,2.68a.74.74,0,0,0,.28.16.37.37,0,0,0,.23,0,.53.53,0,0,0,.21-.11,1.14,1.14,0,0,0,.19-.19l.07-.08.27.23Z"/><path class="cls-1" d="M97.87,83.17,92.1,83l3.2,2.21a.72.72,0,0,0,.29.13.44.44,0,0,0,.23,0,.66.66,0,0,0,.2-.14,1.93,1.93,0,0,0,.17-.21l.06-.09.29.2-1.2,1.74-.29-.2.06-.09a2,2,0,0,0,.14-.23.64.64,0,0,0,0-.23.49.49,0,0,0-.06-.23,1.23,1.23,0,0,0-.23-.22L91.62,83.3a.61.61,0,0,0-.28-.12.36.36,0,0,0-.23,0,.49.49,0,0,0-.19.14l-.16.2-.06.09-.29-.2.87-1.27,5.53.17-3.06-2.11a.64.64,0,0,0-.28-.13.45.45,0,0,0-.23,0,.54.54,0,0,0-.19.13,1.92,1.92,0,0,0-.16.21l-.06.09-.29-.2,1.19-1.74.29.2L94,78.9a1.41,1.41,0,0,0-.13.24.46.46,0,0,0-.06.22.39.39,0,0,0,.07.23.7.7,0,0,0,.23.22l4.15,2.87Z"/><path class="cls-1" d="M98.21,78.62l.65.68a1,1,0,0,0,.15.14l.13.09a.36.36,0,0,0,.35,0,.67.67,0,0,0,.27-.33l.09-.17.31.15L99.25,81l-.31-.16.07-.14a1,1,0,0,0,.07-.2.37.37,0,0,0,0-.18,1,1,0,0,0-.13-.21,1.66,1.66,0,0,0-.23-.27L95.06,76l.29-.58,5.5.6h.24a.48.48,0,0,0,.18-.05.45.45,0,0,0,.13-.11,1.4,1.4,0,0,0,.12-.18l0-.1.32.15-1,2.07-.32-.15.09-.18c.15-.3.1-.51-.14-.63l-.14,0a.74.74,0,0,0-.17,0l-1-.12Zm-1-2.21-.73-.1a5.61,5.61,0,0,1-.64-.12l.23.19.22.2.24.23a3.2,3.2,0,0,0,.26.28l1.13,1.2.84-1.7Z"/><path class="cls-1" d="M102.07,72.32a.76.76,0,0,0,.31.05.39.39,0,0,0,.22-.08.47.47,0,0,0,.16-.18,1.33,1.33,0,0,0,.11-.24l.06-.18.33.12-.87,2.46-.33-.12.06-.18a1.25,1.25,0,0,0,.07-.26.45.45,0,0,0,0-.23.37.37,0,0,0-.11-.2.58.58,0,0,0-.26-.15l-4.39-1.56-.27.76a.74.74,0,0,0,0,.31.52.52,0,0,0,.07.25.58.58,0,0,0,.17.18,1.28,1.28,0,0,0,.23.14l.32.17-.14.41-1.37-.53L98,68.8l1.39.45-.14.41-.36-.08-.26,0a1,1,0,0,0-.25,0,.51.51,0,0,0-.21.15A.74.74,0,0,0,98,70l-.27.76Z"/><path class="cls-1" d="M102.2,68.25l.79.5.18.1a.37.37,0,0,0,.16.05.34.34,0,0,0,.33-.06.68.68,0,0,0,.19-.39l0-.19.35.08-.45,2-.35-.08,0-.15a.82.82,0,0,0,0-.21.45.45,0,0,0-.07-.18.81.81,0,0,0-.16-.17l-.29-.21-4.46-2.91.14-.64,5.49-.72a.71.71,0,0,0,.23,0,.34.34,0,0,0,.16-.08.49.49,0,0,0,.11-.14,1,1,0,0,0,.07-.21l0-.11.34.08-.5,2.26-.35-.08,0-.19c.07-.33,0-.52-.28-.58h-.32l-1,.12Zm-1.51-1.92-.73.09-.65,0,.27.13.26.15.28.17.32.2,1.38.9.42-1.85Z"/><path class="cls-4" d="M31.85,52.49a.19.19,0,0,0,0-.08l-.52-1.21a.73.73,0,0,1,1.15-.86.24.24,0,0,0,.31,0,.26.26,0,0,0,.08-.3l0,0a.31.31,0,0,0,0-.08l-.52-1.2a.75.75,0,0,1,0-.57.72.72,0,0,1,.39-.41.74.74,0,0,1,.94.34.27.27,0,0,0,.24.13.24.24,0,0,0,.22-.15L35,45.7a.74.74,0,1,1,1.37.55l-.94,2.37a.25.25,0,0,0,.06.26.25.25,0,0,0,.26.07.73.73,0,0,1,.92.39.75.75,0,0,1,0,.57.76.76,0,0,1-.4.41l-1.2.52,0,0-.09,0a.25.25,0,0,0-.15.27.26.26,0,0,0,.24.21.72.72,0,0,1,.65.44.74.74,0,0,1-.39,1l-1.2.52,0,0-1.28.56a24,24,0,0,1,1.49-3.66.26.26,0,0,0-.11-.34.26.26,0,0,0-.34.11,26.33,26.33,0,0,0-1.48,3.63Z"/><path class="cls-4" d="M31.93,57.51l.32-.23a.81.81,0,0,1,.38-.07.7.7,0,0,1,.62.45.26.26,0,0,0,.28.14.24.24,0,0,0,.2-.23v0a.19.19,0,0,0,0-.08l.08-1.31a.76.76,0,0,1,.25-.52.74.74,0,0,1,.54-.18.73.73,0,0,1,.68.73.25.25,0,0,0,.15.22.27.27,0,0,0,.27,0l1.9-1.7a.71.71,0,0,1,.54-.18.73.73,0,0,1,.69.78.75.75,0,0,1-.24.51l-1.91,1.7a.26.26,0,0,0-.08.26.28.28,0,0,0,.21.18.72.72,0,0,1,.64.76.75.75,0,0,1-.78.7l-1.31-.08h-.14a.24.24,0,0,0-.25.18.24.24,0,0,0,.11.29.73.73,0,0,1-.4,1.38l-1.3-.08h0L31.93,61l3.12-2.78a.19.19,0,0,0,0-.28.19.19,0,0,0-.28,0l-3.15,2.8A24.09,24.09,0,0,1,31.93,57.51Z"/><path class="cls-4" d="M31.16,59.76l-2.58-3.29a.22.22,0,0,0-.29,0,.2.2,0,0,0,0,.28l2.6,3.3-1.31-.15s-.05,0-.08,0l-1.3-.15A.74.74,0,0,1,28,58.26a.25.25,0,0,0,.17-.26.28.28,0,0,0-.22-.22h0l-.08,0-1.31-.15a.74.74,0,0,1-.65-.83.73.73,0,0,1,.74-.64h0a.22.22,0,0,0,.23-.13.26.26,0,0,0,0-.27l-1.57-2a.73.73,0,0,1,.12-1,.71.71,0,0,1,.55-.16.79.79,0,0,1,.49.28l1.58,2a.25.25,0,0,0,.26.08.24.24,0,0,0,.18-.19.74.74,0,0,1,.81-.6.76.76,0,0,1,.65.83l-.16,1.3v.14a.25.25,0,0,0,.46.16.77.77,0,0,1,.7-.34.73.73,0,0,1,.64.67A25.68,25.68,0,0,0,31.16,59.76Z"/><path class="cls-4" d="M27.85,65l3.56,2.17-1.34.32H30l-1.28.31a.7.7,0,0,1-.56-.09.68.68,0,0,1-.33-.46.74.74,0,0,1,.24-.73.23.23,0,0,0,.06-.3.25.25,0,0,0-.28-.13h-.12l-1.28.31a.73.73,0,0,1-.89-.55A.74.74,0,0,1,26,65a.25.25,0,0,0,.17-.21.26.26,0,0,0-.12-.24l-2.17-1.32a.76.76,0,0,1-.34-.46.78.78,0,0,1,.09-.56.75.75,0,0,1,1-.25l2.18,1.33a.24.24,0,0,0,.27,0,.25.25,0,0,0,.11-.24.74.74,0,0,1,1.1-.76.78.78,0,0,1,.34.46L29,64a.09.09,0,0,0,0,0l0,.09a.25.25,0,0,0,.25.19.24.24,0,0,0,.24-.19.73.73,0,0,1,.54-.57.75.75,0,0,1,.68.17l.53.57c.07.56.13,1.11.23,1.67.05.29.13.58.19.87l-3.63-2.21a.2.2,0,0,0-.28.07A.21.21,0,0,0,27.85,65Z"/><path class="cls-4" d="M32.27,67.15l.14-.46a.76.76,0,0,1,.46-.45.73.73,0,0,1,.75.18.26.26,0,0,0,.31,0,.28.28,0,0,0,.11-.3l0,0A.28.28,0,0,0,34,66l-.42-1.24a.75.75,0,0,1,0-.57.73.73,0,0,1,1.33,0,.27.27,0,0,0,.23.15.3.3,0,0,0,.23-.14L36.55,62a.74.74,0,0,1,1-.34.75.75,0,0,1,.34,1L36.74,65a.26.26,0,0,0,.29.36.72.72,0,0,1,.88.47.75.75,0,0,1,0,.57.72.72,0,0,1-.43.37l-1.23.42h-.05l-.09,0a.24.24,0,0,0-.17.26.25.25,0,0,0,.22.22.74.74,0,0,1,.14,1.43L35,69.52l0,0L33.64,70l1.87-3.78a.2.2,0,0,0-.09-.27.22.22,0,0,0-.27.09l-2,4.07A24.42,24.42,0,0,1,32.27,67.15Z"/><path class="cls-4" d="M29.89,72.65l4,1.13-1.2.67-.08,0-1.15.65a.75.75,0,0,1-1-.29.74.74,0,0,1,0-.77.24.24,0,0,0,0-.31.26.26,0,0,0-.31,0l0,0-.08,0-1.15.65a.73.73,0,0,1-.56.07.75.75,0,0,1-.45-.35.74.74,0,0,1,.24-1,.27.27,0,0,0,.11-.25.26.26,0,0,0-.18-.2L25.64,72a.79.79,0,0,1-.45-.35.75.75,0,0,1-.07-.57.7.7,0,0,1,.35-.44A.75.75,0,0,1,26,70.6l2.45.68a.25.25,0,0,0,.3-.34.73.73,0,0,1,.29-1,.81.81,0,0,1,.57-.07.74.74,0,0,1,.44.35l.65,1.14s0,0,0,0l0,.09a.24.24,0,0,0,.29.11.25.25,0,0,0,.18-.25.71.71,0,0,1,.37-.69.74.74,0,0,1,.68,0l.59.24a24.31,24.31,0,0,0,1.13,2.49L30,72.26a.19.19,0,0,0-.24.14A.2.2,0,0,0,29.89,72.65Z"/><path class="cls-4" d="M36,75.65a.65.65,0,0,0,0-.21,2.74,2.74,0,0,1,0-.51.7.7,0,0,1,.2-.38.75.75,0,0,1,.82-.14.26.26,0,0,0,.31-.39L37.22,74s0,0,0,0l-.68-.85a1.43,1.43,0,0,1-.26-.38.77.77,0,0,1,0-.4.72.72,0,0,1,1.24-.35.26.26,0,0,0,.45-.15l.23-2,.06-.51a.64.64,0,0,1,.14-.34.72.72,0,0,1,1.23.14.74.74,0,0,1,.06.36l0,.51-.23,2a.28.28,0,0,0,.43.26.71.71,0,0,1,1.11.6.66.66,0,0,1-.11.36,1.25,1.25,0,0,1-.33.31l-.84.68h0l-.1.08a.27.27,0,0,0-.1.28.28.28,0,0,0,.33.21.7.7,0,0,1,.87.83c0,.26-.21.39-.5.62l-.77.62h0l-.76.61-.33.27.45-4.19a.2.2,0,1,0-.4,0L37.82,78A23.46,23.46,0,0,1,36,75.65Z"/><path class="cls-4" d="M34,79.75h4.22l-1,1a.18.18,0,0,0-.07,0l-.93.93a.73.73,0,0,1-.52.22.84.84,0,0,1-.53-.21A.75.75,0,0,1,35,81a.25.25,0,0,0-.41-.25l0,0a.18.18,0,0,0-.07,0l-.93.93a.73.73,0,0,1-.52.22h0a.75.75,0,0,1-.53-.22.74.74,0,0,1,0-1,.25.25,0,0,0,0-.26.25.25,0,0,0-.23-.15H29.74a.74.74,0,0,1-.74-.74.75.75,0,0,1,.74-.75h2.55a.25.25,0,0,0,.23-.15.25.25,0,0,0,0-.27.74.74,0,0,1,1.08-1l.92.92,0,0,.07.07a.25.25,0,0,0,.41-.26.73.73,0,0,1,.17-.76.75.75,0,0,1,.77-.18l.77.27c.52.64,1.06,1.26,1.64,1.86H34a.2.2,0,1,0,0,.4Z"/><path class="cls-4" d="M42.85,81.14a.73.73,0,0,1,.63-.36h.07a.25.25,0,0,0,.24-.18.24.24,0,0,0-.11-.29l0,0a.18.18,0,0,0-.07,0l-1.13-.67a.75.75,0,0,1-.26-1,.74.74,0,0,1,1-.28.24.24,0,0,0,.27,0A.22.22,0,0,0,43.5,78l-.63-2.47a.74.74,0,0,1,1.44-.37l.63,2.48a.25.25,0,0,0,.45.08.74.74,0,0,1,1-.22.76.76,0,0,1,.26,1L46,79.64s0,0,0,0l0,.09a.26.26,0,0,0,0,.31.24.24,0,0,0,.31,0,.76.76,0,0,1,.78,0,.7.7,0,0,1,.34.45.73.73,0,0,1-.08.56l-.66,1.13a.08.08,0,0,0,0,0l-.73,1.21-1-4.08a.2.2,0,0,0-.38.1L45.58,84h0c-.34-.16-.68-.32-1-.5-.58-.32-1.16-.65-1.71-1l-.12-.86A.7.7,0,0,1,42.85,81.14Z"/><path class="cls-4" d="M39.66,85.27h.06l4.05-1.14-.67,1.2-.05.06-.64,1.15a.75.75,0,0,1-.45.35.69.69,0,0,1-.56-.07.72.72,0,0,1-.37-.67.24.24,0,0,0-.18-.25.24.24,0,0,0-.29.11l0,0,0,.06-.64,1.15a.75.75,0,0,1-.45.35.73.73,0,0,1-.56-.07.71.71,0,0,1-.3-1,.25.25,0,0,0,0-.27.27.27,0,0,0-.26-.08l-2.45.69a.73.73,0,0,1-.91-.51.75.75,0,0,1,.51-.92l2.46-.69a.25.25,0,0,0,.18-.2.26.26,0,0,0-.11-.25.73.73,0,0,1-.24-1,.79.79,0,0,1,.45-.35.73.73,0,0,1,.56.07l1.14.64,0,0,.09,0a.25.25,0,0,0,.33-.36.72.72,0,0,1,0-.78.75.75,0,0,1,.68-.38l1,.11c.63.45,1.28.88,2,1.27l-4.27,1.21a.19.19,0,0,0-.14.24A.21.21,0,0,0,39.66,85.27Z"/><path class="cls-4" d="M85.19,63.58a8.79,8.79,0,0,1,4.51-1.37h0A9.26,9.26,0,0,1,82.31,67l3.33-2a.19.19,0,0,0,.07-.27.2.2,0,0,0-.28-.07l-3.3,2A8.9,8.9,0,0,1,85.19,63.58Z"/><path class="cls-4" d="M84.69,55.81a8.85,8.85,0,0,1,4-2.55,8.74,8.74,0,0,1-2.24,4.2,8.9,8.9,0,0,1-3.62,2.41L85.52,57a.2.2,0,1,0-.29-.27l-2.66,2.85A9.08,9.08,0,0,1,84.69,55.81Z"/><path class="cls-4" d="M81,53.25A26.86,26.86,0,0,0,79.66,50a.25.25,0,0,0-.45.23,25.79,25.79,0,0,1,1.41,3.41,9.28,9.28,0,0,1-3.06-8.28,8.85,8.85,0,0,1,2.82,3.84A9,9,0,0,1,81,53.25Z"/><path class="cls-4" d="M78.23,58.15l2.9,2.58a8.92,8.92,0,0,1-3.8-2,8.82,8.82,0,0,1-2.65-4,9.27,9.27,0,0,1,6.76,5.71l-3-2.62a.2.2,0,0,0-.28,0A.19.19,0,0,0,78.23,58.15Z"/><path class="cls-4" d="M78,66.21l1.74,3.52A8.89,8.89,0,0,1,77,66.4a8.74,8.74,0,0,1-1-4.66,8.72,8.72,0,0,1,3.13,3.59,8.86,8.86,0,0,1,1,4.22L78.34,66a.21.21,0,0,0-.27-.1A.2.2,0,0,0,78,66.21Z"/><path class="cls-4" d="M67.75,78.87a8.69,8.69,0,0,1,2.31-4.16,8.78,8.78,0,0,1,0,4.75,9,9,0,0,1-2,3.84l1-3.81a.21.21,0,0,0-.15-.24.2.2,0,0,0-.24.14l-1,3.81A8.84,8.84,0,0,1,67.75,78.87Z"/><path class="cls-4" d="M74.43,84a8.75,8.75,0,0,1,4.11,2.39,8.77,8.77,0,0,1-4.76-.06A9,9,0,0,1,70,84.19l3.81,1.07h.06a.2.2,0,0,0,0-.39l-3.74-1.06A9,9,0,0,1,74.43,84Z"/><path class="cls-4" d="M79.81,78.34a8.81,8.81,0,0,1,4.6,1.21,9.26,9.26,0,0,1-8.82.2h3.93a.2.2,0,0,0,0-.4H75.6A9,9,0,0,1,79.81,78.34Z"/><path class="cls-4" d="M75.58,77.39,75,73.5a.2.2,0,1,0-.4.06l.55,3.89a8.81,8.81,0,0,1-1.59-4,8.67,8.67,0,0,1,.55-4.72A8.79,8.79,0,0,1,76,73.07,9,9,0,0,1,75.58,77.39Z"/><path class="cls-4" d="M83.51,71.23a8.77,8.77,0,0,1,4.76-.06,8.72,8.72,0,0,1-4.11,2.39,8.94,8.94,0,0,1-4.34.15l3.79-1.06a.21.21,0,0,0,.14-.25.21.21,0,0,0-.25-.14l-3.78,1.06A8.91,8.91,0,0,1,83.51,71.23Z"/></g></svg>